<svg version="1.1" id="cover-ground" xmlns="http://www.w3.org/2000/svg" xmlns:xlink="http://www.w3.org/1999/xlink" x="0px" y="0px" viewBox="0 0 1020 397" style="enable-background:new 0 0 1020 397;" xml:space="preserve">
	<path class="cover-icons" id="tree_l" d="M13.3,370.5c-2.7,0-5.4,0.8-7.6,2.3c-6,4.2-7.5,12.4-3.4,18.4s12.5,7.5,18.5,3.3s7.5-12.4,3.4-18.4c1.4,0.6,2.9,0.9,4.4,1
	v19h1v-18.9c1.5-0.1,3-0.4,4.4-1c-3.2,4.5-3.2,10.6,0,15.1c4.2,6,12.5,7.4,18.5,3.3s7.5-12.4,3.3-18.4c1.4,0.6,2.9,0.9,4.4,1v18.9h1
	v-18.9c1.5-0.1,3-0.4,4.4-1c-1.6,2.2-2.4,4.9-2.4,7.6c0,7.3,6,13.2,13.4,13.2c7.5,0.1,13.4-5.9,13.4-13.2c0-7.3-6-13.2-13.4-13.2
	c-1.7,0-3.3,0.3-4.9,1c3.2-4.5,3.2-10.6,0-15.1c-4.2-6-12.5-7.4-18.5-3.3s-7.5,12.4-3.3,18.4c-3.2-1.3-6.7-1.3-9.8,0
	c1.5-2.2,2.3-4.9,2.3-7.6c0.1-3.2-1-6.4-3-8.9c-0.9-1.3-1.7-2.4-1.7-4c0.1-1.5,0.4-3,1.1-4.4c0.7-1.5,1.1-3.1,1.2-4.8l0,0
	c-0.1-6-4.9-10.8-10.9-10.8s-10.8,4.8-10.8,10.8c0.1,1.7,0.5,3.3,1.2,4.8c0.7,1.4,1,2.9,1.1,4.4c0,1.6-0.7,2.7-1.7,4
	c-2,2.5-3.1,5.7-3,8.9c0,2.7,0.8,5.3,2.4,7.6C16.6,370.9,15,370.6,13.3,370.5L13.3,370.5z M76.1,395.1c-5.9-0.3-10.6-4.9-10.8-10.8
	c-0.3-6.2,4.6-11.5,10.8-11.8c6.2-0.3,11.6,4.6,11.8,10.8c0.3,6.2-4.6,11.5-10.8,11.7v-3.9l6.8-6.8l-0.7-0.7l-6.1,6.1v-10.1h-1v10.3
	l-6.1-6.2l-0.7,0.7l6.8,6.8L76.1,395.1L76.1,395.1z M60.3,375.2c-5.9-0.3-10.6-4.9-10.8-10.8c-0.3-6.2,4.6-11.5,10.8-11.7
	c6.3-0.3,11.6,4.6,11.8,10.8c0.3,6.2-4.6,11.5-10.8,11.7v-15.5h-1V370l-6.1-6.1l-0.7,0.7l6.8,6.8V375.2z M44.5,395.1
	c-5.9-0.3-10.6-4.9-10.8-10.8c-0.3-6.2,4.6-11.5,10.8-11.7s11.5,4.5,11.8,10.7s-4.6,11.5-10.8,11.7v-3.9l6.8-6.8l-0.7-0.7l-6.2,6.1
	v-10.1h-1v10.3l-6.1-6.1l-0.7,0.7l6.8,6.8L44.5,395.1L44.5,395.1z M28.6,375.2c-6.1-0.3-10.9-5.2-10.9-11.3
	c-0.1-2.8,0.9-5.6,2.7-7.8c1.1-1.5,2.1-2.9,2.1-5.1c0-1.8-0.5-3.5-1.2-5.1c-0.6-1.3-1-2.7-1-4.1l0,0c0-4.9,4-8.8,8.9-8.8
	s8.9,4,8.9,8.8c-0.1,1.4-0.4,2.8-1,4.1c-0.8,1.6-1.2,3.4-1.2,5.2c0,2.2,1,3.6,2.1,5.1c1.8,2.2,2.7,4.9,2.7,7.8c0,6-4.8,11-10.9,11.3
	v-28.5l4.4-4.4l-0.7-0.7l-3.7,3.7v-7.5h-1v32l-6.2-6.1l-0.7,0.7l6.8,6.8L28.6,375.2L28.6,375.2z M12.9,395.1
	c-5.9-0.3-10.6-5-10.9-10.8c-0.3-6.2,4.6-11.5,10.9-11.8s11.5,4.6,11.8,10.8c0.3,6.2-4.6,11.5-10.8,11.7v-3.9l6.8-6.8l-0.7-0.6
	l-6.2,6.1v-10.2h-1v10.3l-6.2-6.1L6,384.4l6.8,6.8L12.9,395.1L12.9,395.1z"></path>
	<g>
		<path class="cover-icons" d="M233.6,335.7h-12.3c-0.8,0-1.4,0.6-1.4,1.4v34.4c0,0.8,0.6,1.4,1.4,1.4h12.3c0.8,0,1.4-0.6,1.4-1.4v-34.4
		C235,336.3,234.4,335.7,233.6,335.7z M232.4,370.9h-10c-0.3,0-0.6-0.3-0.6-0.6v-32.1c0-0.3,0.3-0.6,0.6-0.6h10
		c0.3,0,0.6,0.3,0.6,0.6v32.2C233,370.6,232.7,370.9,232.4,370.9z M294.7,343.9v7.5h-4.5v-7.5H294.7 M295.2,342.4h-5.5
		c-0.6,0-1,0.4-1,1v8.5c0,0.5,0.5,1,1,1h5.5c0.6,0,1-0.4,1-1v-8.5C296.2,342.8,295.8,342.4,295.2,342.4L295.2,342.4z M350.5,366.4
		c-1.6,0.1-2.8,1.4-2.8,3c0.1,1.6,1.4,2.8,3,2.8c1.6-0.1,2.8-1.3,2.8-2.9S352.2,366.4,350.5,366.4
		C350.6,366.4,350.5,366.4,350.5,366.4z M350.5,371.2c-1.1,0-1.9-0.9-1.8-2c0-1.1,0.9-1.9,2-1.8c1,0,1.8,0.9,1.8,1.9
		S351.6,371.2,350.5,371.2C350.6,371.2,350.5,371.2,350.5,371.2L350.5,371.2z M522.1,366.4c-1.6,0.1-2.8,1.4-2.8,3
		c0.1,1.6,1.4,2.8,3,2.8c1.6-0.1,2.8-1.3,2.8-2.9S523.7,366.4,522.1,366.4L522.1,366.4z M522.1,371.2c-1.1,0-1.9-0.9-1.8-2
		c0.1-1.1,0.9-1.9,2-1.8c1,0,1.8,0.9,1.8,1.9S523.2,371.2,522.1,371.2L522.1,371.2L522.1,371.2z M603.4,341.4v-4.1h1.6v-9.2H439.2
		v9.3h1.6v4.1h1.6V375h-3.3v2.8h-5.8V375H430v-33.6h1.6v-4.1h1.6v-9.2H267.6v9.3h1.6v4.1h1.6V375h-3.3v2.8h-8.3l0.3-0.7h2.3v-35.2
		h-22.2v-4.6h3.9v-7l-0.3-0.3c-0.4-0.2-10.2-5.6-26-5.6s-25.6,5.3-26,5.6l-0.5,0.3v7.1h3.9v9.7h-8.5c-0.9,0-1.7-0.7-1.7-1.6v-6
		c-0.2-4.8-4.1-8.5-8.8-8.3c-4.5,0.2-8.1,3.8-8.2,8.3v6.2c0,0.8-0.6,1.5-1.4,1.5s-1.4-0.7-1.4-1.5v-6.1c0-4.8-3.9-8.7-8.7-8.6l0,0
		c-4.6,0.1-8.3,3.8-8.4,8.5v6c0,0.9-0.8,1.7-1.7,1.6h-8.7l1.1-19h2.2V324h-22.3v4.1h2.3l1.3,19h-11v5.8l-5.7,1.3v15.9l5.6,1.3v5.8
		h2.4l1.8,3.5h6.2c-0.9,1.6-1.4,3.4-1.4,5.3c0.2,6.2,5.2,11,11.3,10.8c5.1-0.2,9.4-3.8,10.5-8.9h2.8c1.1,6,6.9,10,12.9,8.9
		c4.4-0.9,7.9-4.4,8.7-8.9H207c1.1,6,6.9,10,12.9,8.9c4.4-0.9,7.9-4.4,8.7-8.9h2.8c1.2,6,7,9.9,13,8.7c5-1,8.7-5.4,8.8-10.6
		c0-1.9-0.5-3.7-1.4-5.3h6.2l0.4-0.9h9.2v1.2h9.6c-2,1.7-3.1,4.2-3.1,6.8c0.1,5.1,4.3,9.2,9.4,9.1c4.5-0.1,8.3-3.5,8.9-8.1h2.7
		c0.7,5.1,5.3,8.7,10.3,8c4.1-0.6,7.4-3.8,7.9-8H388c0.7,5.1,5.3,8.7,10.3,8c4.1-0.6,7.4-3.8,7.9-8h2.1c0.7,5.1,5.3,8.7,10.3,8
		c4.5-0.6,7.9-4.4,8-9c0-2.6-1.1-5.1-3.1-6.8h9.6v-1.2h5.8v1.2h9.6c-2,1.7-3.1,4.2-3.1,6.8c0.3,5.1,4.6,9.1,9.7,8.8
		c4.3-0.2,7.9-3.5,8.6-7.8h2.7c0.6,5.1,5.2,8.7,10.3,8.1c4.2-0.5,7.5-3.9,8-8.1h74.7c0.6,5.1,5.3,8.7,10.3,8.1
		c4.2-0.5,7.4-3.9,8-8.1h2.1c0.7,5.1,5.3,8.7,10.3,8c4.5-0.6,7.9-4.4,8-9c0-2.6-1.1-5.1-3.1-6.8h9.6v-6h-3.3v-33.6L603.4,341.4
		L603.4,341.4z M139.5,386h-7.3l0.5-8.5C136.6,378.4,139.4,381.9,139.5,386L139.5,386z M140.1,380.8h5.2c-0.9,1.6-1.4,3.4-1.4,5.2
		h-2.4C141.5,384.1,141,382.3,140.1,380.8L140.1,380.8z M152.7,377.5l0.5,8.5h-7.3C146,381.9,148.8,378.4,152.7,377.5L152.7,377.5z
		 M157.1,377.5c3.9,0.9,6.7,4.4,6.8,8.5h-7.3L157.1,377.5z M164.5,380.7h5.2c1.8,0,3.3,1.5,3.3,3.3l0,0h26.6c0-1.8,1.5-3.3,3.3-3.3
		h0.1h5.2c-0.9,1.6-1.4,3.4-1.4,5.2h-41C165.9,384.1,165.4,382.3,164.5,380.7z M215.6,377.4l0.5,8.5h-7.3
		C208.9,381.9,211.7,378.4,215.6,377.4L215.6,377.4z M220,377.4c3.9,0.9,6.7,4.4,6.8,8.5h-7.3L220,377.4z M227.4,380.7h5.2
		c-0.9,1.6-1.4,3.4-1.4,5.2h-2.5C228.7,384.1,228.2,382.3,227.4,380.7z M240,377.4l0.5,8.5h-7.3C233.3,381.9,236.1,378.4,240,377.4z
		 M196.6,349.1v-13.7h-3.9v-3.9c2.2-1.1,11.2-5.1,24.5-5.1s22.3,4.1,24.5,5.1v3.9h-3.9v8.6H260v31.3h-68.2v-26.2L196.6,349.1
		L196.6,349.1z M169.4,345.7v-6.3c0.1-3.7,3.2-6.5,6.8-6.4c3.4,0.1,6.2,2.9,6.3,6.4v6c0,2,1.7,3.6,3.7,3.6l0,0h2.2v26.1h-20.7v-26.5
		C168.7,348,169.3,346.9,169.4,345.7L169.4,345.7z M149.4,345.5v-6c0.1-3.6,3.1-6.5,6.7-6.4c1.6,0,3.2,0.7,4.3,1.8
		c1.3,1.3,2,3,2,4.8v6.1c0,1.2,0.6,2.3,1.7,2.9v26.6h-20.4v-26.2h2C147.7,349.1,149.4,347.5,149.4,345.5L149.4,345.5L149.4,345.5z
		 M107,368.5v-12.7l5.6-1.3v-5.4h11.2l-1.4-20.5h13.7l-1.1,20.5h5.2v26.1h-27.6v-5.4L107,368.5z M130.5,394.9
		c-4.8,0.1-8.8-3.7-9-8.6c-0.1-4.2,2.7-7.9,6.8-8.9l0.5,8.5h-2.4v2h2.6l0.1,2.2h2.8l0.1-2.2h7.2C138.3,392,134.7,394.9,130.5,394.9z
		 M154.9,394.9c-4.2,0-7.8-2.9-8.8-7h7.2l0.1,2.2h2.8l0.1-2.2h7.2C162.7,392,159.1,394.9,154.9,394.9z M217.8,394.9
		c-4.2,0-7.8-2.9-8.8-7h7.2l0.1,2.2h2.8l0.1-2.2h7.2C225.6,392,221.9,394.9,217.8,394.9z M242.2,394.9c-4.2,0-7.8-2.9-8.8-7h7.2
		l0.1,2.2h2.8l0.1-2.2h2.5v-2h-2.4l0.5-8.5c4.7,0.9,7.8,5.6,6.9,10.4C250.4,392.1,246.5,395.2,242.2,394.9L242.2,394.9z
		 M282.3,357.4V375h-4.2v-17.5L282.3,357.4z M284.3,358.1h132.4V375H284.3V358.1z M418.7,375v-17.5h4.2V375H418.7z M285.5,381.1
		c2.6,0.8,4.5,3,4.9,5.7h-5.7l0.4-5.8L285.5,381.1z M289.5,381.1h8.8c-1.7,1.5-2.7,3.5-3,5.8h-2.7
		C292.2,384.6,291.2,382.5,289.5,381.1L289.5,381.1z M302.2,381.1h0.4l0.4,5.7h-5.7C297.6,384.1,299.6,381.8,302.2,381.1
		L302.2,381.1z M306.2,381.1h0.4c2.6,0.8,4.5,3,4.9,5.7h-5.7L306.2,381.1z M310.5,381.1h80.8c-1.7,1.5-2.7,3.5-3,5.8h-74.8
		C313.2,384.6,312.1,382.5,310.5,381.1L310.5,381.1z M395.2,381.1h0.4l0.4,5.8h-5.7C390.6,384.1,392.5,381.9,395.2,381.1
		L395.2,381.1z M399.2,381.1h0.4c2.6,0.8,4.5,3,4.9,5.7h-5.7L399.2,381.1z M403.5,381.1h8.2c-1.7,1.5-2.7,3.5-3,5.8h-2.1
		C406.3,384.6,405.2,382.5,403.5,381.1L403.5,381.1z M415.6,381.1h0.4l0.4,5.8h-5.7C411,384.1,412.9,381.9,415.6,381.1L415.6,381.1z
		 M424,375v-17.5h4.2V375H424z M428.2,356.5h-9.5v-15.1h9.5V356.5z M269.6,330.1h161.8v5.3H269.6V330.1z M429.8,337.4v2h-13.1v16.4
		H284.3v-16.4h-13.1v-2H429.8z M282.3,341.4v15.1h-9.5v-15.1H282.3z M272.9,357.5h4.2V375h-4.2V357.5z M283.3,395
		c-3.9,0.1-7.1-2.9-7.2-6.8c-0.1-3.2,2-6.1,5-7h0.4l0.4,5.8h-1.8v2h2l0.2,2.5h2.3l0.2-2.5h5.8c-0.6,3.5-3.6,6-7.1,6H283.3z
		 M304.3,395c-3.5,0-6.6-2.5-7.1-6.1h5.8l0.2,2.5h2.3l0.2-2.5h5.8C310.9,392.4,307.9,394.9,304.3,395L304.3,395z M397.3,395
		c-3.5,0-6.6-2.5-7.1-6.1h5.8l0.2,2.5h2.3l0.2-2.5h5.8C403.9,392.4,400.9,394.9,397.3,395L397.3,395z M424.9,387.9
		c-0.1,4-3.4,7.2-7.3,7.2c-3.5-0.1-6.4-2.7-7-6.1h5.8l0.2,2.5h2.3l0.1-2.6h2v-2h-1.8l0.4-5.8h0.4c3,0.9,5,3.7,5,6.8H424.9z
		 M441.2,330.2H603v5.3H441.2V330.2z M601.4,337.5v2h-13.1v16.3H455.9v-16.4h-13.1v-2L601.4,337.5z M453.9,357.5V375h-4.2v-17.5
		H453.9z M455.9,358.2h132.4V375H455.9V358.2z M457.1,381c2.6,0.8,4.5,3,4.9,5.8h-5.7l0.4-5.8H457.1z M461,381h8.8
		c-1.7,1.5-2.7,3.5-3,5.8H464C463.7,384.6,462.7,382.5,461,381L461,381z M473.7,381h0.4l0.4,5.8h-5.7
		C469.2,384.1,471.1,381.8,473.7,381L473.7,381z M477.7,381h0.4c2.6,0.8,4.5,3,4.9,5.8h-5.7L477.7,381z M482,381h80.8
		c-1.7,1.5-2.7,3.5-3,5.8H485C484.7,384.6,483.7,382.5,482,381L482,381z M566.8,381h0.4l0.4,5.8h-5.7
		C562.2,384.1,564.1,381.9,566.8,381L566.8,381z M570.8,381h0.4c2.6,0.8,4.5,3.1,4.9,5.8h-5.7L570.8,381z M575.1,381h8.2
		c-1.7,1.5-2.7,3.5-3,5.8H578C577.7,384.6,576.7,382.5,575.1,381L575.1,381z M587.2,381h0.4l0.4,5.8h-5.7
		C582.6,384.1,584.5,381.9,587.2,381L587.2,381z M590.3,375v-17.5h4.2V375H590.3z M453.9,341.4v15.1h-9.5v-15.1H453.9z M444.5,357.5
		h4.2V375h-4.2V357.5z M454.9,395c-3.9,0.1-7.1-2.9-7.2-6.8c-0.1-3.2,2-6.1,5-7h0.4l0.4,5.8h-1.8v2h2l0.2,2.5h2.3l0.2-2.5h5.7
		C461.4,392.4,458.4,394.9,454.9,395L454.9,395z M475.9,395c-3.5,0-6.6-2.5-7.1-6.1h5.8l0.2,2.5h2.3l0.2-2.5h5.8
		C482.4,392.4,479.4,394.9,475.9,395L475.9,395z M568.9,395c-3.5,0-6.6-2.5-7.1-6.1h5.8l0.2,2.5h2.2l0.2-2.6h5.8
		C575.4,392.3,572.4,394.9,568.9,395L568.9,395z M596.5,387.9c-0.1,4-3.4,7.2-7.3,7.2c-3.5-0.1-6.4-2.7-7-6.1h5.8l0.2,2.5h2.3
		l0.2-2.5h2v-2.1h-1.8l0.4-5.8h0.4C594.5,381.9,596.5,384.7,596.5,387.9L596.5,387.9z M595.5,375.1v-17.6h4.2V375L595.5,375.1z
		 M599.7,356.6h-9.5v-15.2h9.5V356.6z M307.6,343.9v7.5h-4.5v-7.5H307.6 M308.1,342.4h-5.5c-0.6,0-1,0.4-1,1v8.5c0,0.5,0.5,1,1,1
		h5.5c0.6,0,1-0.4,1-1v-8.5C309.1,342.8,308.7,342.4,308.1,342.4L308.1,342.4z M320.5,343.9v7.5H316v-7.5H320.5 M321,342.4h-5.5
		c-0.6,0-1,0.4-1,1v8.5c0,0.5,0.5,1,1,1h5.5c0.6,0,1-0.4,1-1v-8.5C322,342.8,321.6,342.4,321,342.4L321,342.4z M333.5,343.9v7.5H329
		v-7.5H333.5 M334,342.4h-5.5c-0.6,0-1,0.4-1,1v8.5c0,0.5,0.5,1,1,1h5.5c0.6,0,1-0.4,1-1v-8.5C335,342.8,334.6,342.4,334,342.4
		L334,342.4z M346.3,343.9v7.5h-4.5v-7.5H346.3 M346.8,342.4h-5.5c-0.6,0-1,0.4-1,1v8.5c0,0.5,0.5,1,1,1h5.5c0.6,0,1-0.4,1-1v-8.5
		C347.8,342.8,347.4,342.4,346.8,342.4L346.8,342.4z M359.2,343.9v7.5h-4.5v-7.5H359.2 M359.7,342.4h-5.5c-0.6,0-1,0.4-1,1v8.5
		c0,0.5,0.5,1,1,1h5.5c0.6,0,1-0.4,1-1v-8.5C360.7,342.8,360.3,342.4,359.7,342.4L359.7,342.4z M372.1,343.9v7.5h-4.5v-7.5H372.1
		 M372.6,342.4h-5.5c-0.6,0-1,0.4-1,1v8.5c0,0.5,0.5,1,1,1h5.5c0.6,0,1-0.4,1-1v-8.5C373.6,342.8,373.2,342.4,372.6,342.4
		L372.6,342.4z M385,343.9v7.5h-4.5v-7.5H385 M385.5,342.4H380c-0.6,0-1,0.4-1,1v8.5c0,0.5,0.5,1,1,1h5.5c0.6,0,1-0.4,1-1v-8.5
		C386.5,342.8,386.1,342.4,385.5,342.4L385.5,342.4z M398,343.9v7.5h-4.5v-7.5H398 M398.5,342.4H393c-0.6,0-1,0.4-1,1v8.5
		c0,0.5,0.5,1,1,1h5.5c0.6,0,1-0.4,1-1v-8.5C399.5,342.8,399.1,342.4,398.5,342.4L398.5,342.4z M410.9,343.9v7.5h-4.5v-7.5H410.9
		 M411.4,342.4h-5.5c-0.6,0-1,0.4-1,1v8.5c0,0.5,0.5,1,1,1h5.5c0.6,0,1-0.4,1-1v-8.5C412.4,342.8,412,342.4,411.4,342.4L411.4,342.4
		z M466.4,343.9v7.5h-4.5v-7.5H466.4 M466.9,342.4h-5.5c-0.6,0-1,0.4-1,1v8.5c0,0.5,0.5,1,1,1h5.5c0.6,0,1-0.4,1-1v-8.5
		C467.9,342.8,467.5,342.4,466.9,342.4L466.9,342.4z M479.3,343.9v7.5h-4.5v-7.5H479.3 M479.8,342.4h-5.5c-0.6,0-1,0.4-1,1v8.5
		c0,0.5,0.5,1,1,1h5.5c0.6,0,1-0.4,1-1v-8.5C480.8,342.8,480.4,342.4,479.8,342.4L479.8,342.4z M492.2,343.9v7.5h-4.5v-7.5H492.2
		 M492.7,342.4h-5.5c-0.6,0-1,0.4-1,1v8.5c0,0.5,0.5,1,1,1h5.5c0.6,0,1-0.4,1-1v-8.5C493.7,342.8,493.3,342.4,492.7,342.4
		L492.7,342.4z M505.2,343.9v7.5h-4.5v-7.5H505.2 M505.7,342.4h-5.5c-0.6,0-1,0.4-1,1v8.5c0,0.5,0.5,1,1,1h5.5c0.6,0,1-0.4,1-1v-8.5
		C506.7,342.8,506.3,342.4,505.7,342.4L505.7,342.4z M518,343.9v7.5h-4.5v-7.5H518 M518.5,342.4H513c-0.6,0-1,0.4-1,1v8.5
		c0,0.5,0.5,1,1,1h5.5c0.6,0,1-0.4,1-1v-8.5C519.5,342.8,519.1,342.4,518.5,342.4L518.5,342.4z M530.9,343.9v7.5h-4.5v-7.5H530.9
		 M531.4,342.4h-5.5c-0.6,0-1,0.4-1,1v8.5c0,0.5,0.5,1,1,1h5.5c0.6,0,1-0.4,1-1v-8.5C532.4,342.8,532,342.4,531.4,342.4L531.4,342.4
		z M543.8,343.9v7.5h-4.5v-7.5H543.8 M544.3,342.4h-5.5c-0.6,0-1,0.4-1,1v8.5c0,0.5,0.5,1,1,1h5.5c0.6,0,1-0.4,1-1v-8.5
		C545.3,342.8,544.9,342.4,544.3,342.4L544.3,342.4z M556.7,343.9v7.5h-4.5v-7.5H556.7 M557.2,342.4h-5.5c-0.6,0-1,0.4-1,1v8.5
		c0,0.5,0.5,1,1,1h5.5c0.6,0,1-0.4,1-1v-8.5C558.2,342.8,557.8,342.4,557.2,342.4L557.2,342.4z M569.7,343.9v7.5h-4.5v-7.5H569.7
		 M570.2,342.4h-5.5c-0.6,0-1,0.4-1,1v8.5c0,0.5,0.5,1,1,1h5.5c0.6,0,1-0.4,1-1v-8.5C571.2,342.8,570.8,342.4,570.2,342.4
		L570.2,342.4z M582.6,343.9v7.5h-4.5v-7.5H582.6 M583.1,342.4h-5.5c-0.6,0-1,0.4-1,1v8.5c0,0.5,0.5,1,1,1h5.5c0.6,0,1-0.4,1-1v-8.5
		C584.1,342.8,583.7,342.4,583.1,342.4L583.1,342.4z"></path>
		<rect class="cover-icons" x="289.7" y="342.4" width="5.5" height="1.2">
      <animate attributeName="height" begin="0s" calcMode="linear" dur="1s" fill="freeze" id="w_1-0" restart="always" to="10.5"></animate>
      <animate attributeName="height" begin="w_1-0.end+1s;w_1-2.end+2s" calcMode="linear" dur="1s" fill="freeze" id="w_1-1" restart="always" to="1.2"></animate>
      <animate attributeName="height" begin="w_1-1.end+5s" calcMode="linear" dur="1s" fill="freeze" id="w_1-2" restart="always" to="10.5"></animate>
		</rect>
		<rect class="cover-icons" x="302.6" y="342.4" width="5.5" height="10.5"></rect>
		<rect class="cover-icons" x="315.5" y="342.4" width="5.5" height="10.5">
      <animate attributeName="height" begin="3s" calcMode="linear" dur="1s" fill="freeze" id="w_3-0" restart="always" to="1.2"></animate>
      <animate attributeName="height" begin="w_3-0.end+2s;w_3-2.end+4s" calcMode="linear" dur="1s" fill="freeze" id="w_3-1" restart="always" to="10.5"></animate>
      <animate attributeName="height" begin="w_3-1.end+3s" calcMode="linear" dur="1s" fill="freeze" id="w_3-2" restart="always" to="1.2"></animate>
		</rect>
		<rect class="cover-icons" x="328.4" y="342.4" width="5.5" height="1.2">
      <animate attributeName="height" begin="0s" calcMode="linear" dur="1s" fill="freeze" id="w_4-0" restart="always" to="10.5"></animate>
      <animate attributeName="height" begin="w_4-0.end+3s;w_4-2.end+7s" calcMode="linear" dur="1s" fill="freeze" id="w_4-1" restart="always" to="1.2"></animate>
      <animate attributeName="height" begin="w_4-1.end+5s" calcMode="linear" dur="1s" fill="freeze" id="w_4-2" restart="always" to="10.5"></animate>
		</rect>
		<rect class="cover-icons" x="341.3" y="342.4" width="5.5" height="1.2"></rect>
		<rect class="cover-icons" x="354.2" y="342.4" width="5.5" height="10.5"></rect>
		<rect class="cover-icons" x="367.1" y="342.4" width="5.5" height="10.5">
      <animate attributeName="height" begin="2s" calcMode="linear" dur="1s" fill="freeze" id="w_7-0" restart="always" to="1.2"></animate>
      <animate attributeName="height" begin="w_7-0.end+3s;w_7-2.end+3s" calcMode="linear" dur="1s" fill="freeze" id="w_7-1" restart="always" to="10.5"></animate>
      <animate attributeName="height" begin="w_7-1.end+6s" calcMode="linear" dur="1s" fill="freeze" id="w_7-2" restart="always" to="1.2"></animate>
    </rect>
    <rect class="cover-icons" x="380" y="342.4" width="5.5" height="1.2"></rect>
    <rect class="cover-icons" x="392.9" y="342.4" width="5.5" height="1.2"></rect>
    <rect class="cover-icons" x="405.8" y="342.4" width="5.5" height="1.2">
      <animate attributeName="height" begin="2s" calcMode="linear" dur="1s" fill="freeze" id="w_10-0" restart="always" to="10.5"></animate>
      <animate attributeName="height" begin="w_10-0.end+3s;w_10-2.end+4s" calcMode="linear" dur="1s" fill="freeze" id="w_10-1" restart="always" to="1.2"></animate>
      <animate attributeName="height" begin="w_10-1.end+2s" calcMode="linear" dur="1s" fill="freeze" id="w_10-2" restart="always" to="10.5"></animate>
    </rect>
    <rect class="cover-icons" x="461.4" y="342.4" width="5.5" height="10.5">
      <animate attributeName="height" begin="0s" calcMode="linear" dur="1s" fill="freeze" id="w_11-0" restart="always" to="1,2"></animate>
      <animate attributeName="height" begin="w_11-0.end+1s;w_11-2.end+2s" calcMode="linear" dur="1s" fill="freeze" id="w_11-1" restart="always" to="10.5"></animate>
      <animate attributeName="height" begin="w_11-1.end+5s" calcMode="linear" dur="1s" fill="freeze" id="w_11-2" restart="always" to="1.2"></animate>
    </rect>
    <rect class="cover-icons" x="474.3" y="342.4" width="5.5" height="1.2">
      <animate attributeName="height" begin="0s" calcMode="linear" dur="1s" fill="freeze" id="w_12-0" restart="always" to="10.5"></animate>
      <animate attributeName="height" begin="w_12-0.end+1s;w_12-2.end+2s" calcMode="linear" dur="1s" fill="freeze" id="w_12-1" restart="always" to="1.2"></animate>
      <animate attributeName="height" begin="w_12-1.end+5s" calcMode="linear" dur="1s" fill="freeze" id="w_12-2" restart="always" to="10.5"></animate>
    </rect>
    <rect class="cover-icons" x="487.2" y="342.4" width="5.5" height="10.5"></rect>
    <rect class="cover-icons" x="500.1" y="342.4" width="5.5" height="1.2"></rect>
    <rect class="cover-icons" x="513" y="342.4" width="5.5" height="1.2">
      <animate attributeName="height" begin="3s" calcMode="linear" dur="1s" fill="freeze" id="w_15-0" restart="always" to="10.5"></animate>
      <animate attributeName="height" begin="w_15-0.end+5s;w_15-2.end+3s" calcMode="linear" dur="1s" fill="freeze" id="w_15-1" restart="always" to="1.2"></animate>
      <animate attributeName="height" begin="w_15-1.end+7s" calcMode="linear" dur="1s" fill="freeze" id="w_15-2" restart="always" to="10.5"></animate>
    </rect>
    <rect class="cover-icons" x="525.9" y="342.4" width="5.5" height="1.2">
      <animate attributeName="height" begin="5s" calcMode="linear" dur="1s" fill="freeze" id="w_16-0" restart="always" to="10.5"></animate>
      <animate attributeName="height" begin="w_16-0.end+2s;w_16-2.end+2s" calcMode="linear" dur="1s" fill="freeze" id="w_16-1" restart="always" to="1.2"></animate>
      <animate attributeName="height" begin="w_16-1.end+6s" calcMode="linear" dur="1s" fill="freeze" id="w_16-2" restart="always" to="10.5"></animate>
    </rect>
    <rect class="cover-icons" x="538.8" y="342.4" width="5.5" height="1.2"></rect>
    <rect class="cover-icons" x="551.7" y="342.4" width="5.5" height="10.5"></rect>
    <rect class="cover-icons" x="564.6" y="342.4" width="5.5" height="10.5">
      <animate attributeName="height" begin="3s" calcMode="linear" dur="1s" fill="freeze" id="w_19-0" restart="always" to="1.2"></animate>
      <animate attributeName="height" begin="w_19-0.end+5s;w_19-2.end+2s" calcMode="linear" dur="1s" fill="freeze" id="w_19-1" restart="always" to="10.5"></animate>
      <animate attributeName="height" begin="w_19-1.end+3s" calcMode="linear" dur="1s" fill="freeze" id="w_19-2" restart="always" to="1.2"></animate>
    </rect>
    <rect class="cover-icons" x="577.5" y="342.4" width="5.5" height="1.2">
      <animate attributeName="height" begin="7s" calcMode="linear" dur="1s" fill="freeze" id="w_20-0" restart="always" to="10.5"></animate>
      <animate attributeName="height" begin="w_20-0.end+1s;w_20-2.end+4s" calcMode="linear" dur="1s" fill="freeze" id="w_20-1" restart="always" to="1.2"></animate>
      <animate attributeName="height" begin="w_20-1.end+3s" calcMode="linear" dur="1s" fill="freeze" id="w_20-2" restart="always" to="10.5"></animate>
    </rect>
    <path class="cover-icons" d="M215.3,335.7h-14.2c-0.8,0-1.4,0.6-1.4,1.4v10.7c0,0.8,0.6,1.4,1.4,1.4h14.2c0.8,0,1.4-0.6,1.4-1.4v-10.7
		C216.7,336.3,216.1,335.7,215.3,335.7z	">
      <animate attributeName="fill" begin="0s;train_light.end+2s" calcMode="ease-in-out" dur="3s" fill="remove" id="train_light" restart="always" values="#fff;#FFF59D;#fff"></animate>
    </path>
  </g>
  <path class="cover-icons" d="M646.8,379.5l13.2-29.2l-0.2-0.4c-0.1-0.2-2.3-4.8-11.7-9.3s-14.3-3.5-14.5-3.4l-0.5,0.1L620,366.5l11.3,5.5
	c-3.2,7.5-3.5,12.4-1.3,20.3l-0.4,0.9c-0.4,0.8-0.7,1.6-1,2.5l-0.5,1.3h14.1l-6.4-5.2c-2-7-1.9-11.2,0.5-17.3L646.8,379.5z
	 M629.2,356.9L648,366l-4.3,9.7l-18.8-9.1L629.2,356.9z M634.5,339.1c1.3-0.1,5.5-0.2,12.7,3.3s9.8,6.9,10.6,8l-11.9,26.4l-1.3-0.6
	l5.8-12.9l-20.6-10l-5.8,12.9l-1.3-0.6L634.5,339.1z M634.5,373.6c-2.6,6.6-2.7,11.4-0.5,19l0.1,0.3l2.4,2H631l1.1-2.5l-0.1-0.3
	c-2.2-7.6-2-12.1,1.1-19.2L634.5,373.6z M655.6,351.5l-9-4.3l-2.1,4.7l8.9,4.3L655.6,351.5z M645.9,351.3l1.3-2.8l7.1,3.5l-1.3,2.8
	L645.9,351.3z M644,345.9l-9-4.4l-2.1,4.7l8.9,4.3L644,345.9z M634.2,345.7l1.3-2.8l7.1,3.5l-1.3,2.7L634.2,345.7z M642.6,352.5
	c-1.1-0.5-2.4,0-3,1.1c-0.5,1.2,0,2.5,1.1,3.1c1.1,0.5,2.4,0,2.9-1.1C644.2,354.4,643.8,353.1,642.6,352.5
	C642.7,352.5,642.7,352.5,642.6,352.5z M684.5,383.1l15.5-27.9l-0.2-0.5c-0.1-0.2-1.9-4.9-10.9-10.4s-13.8-4.6-14-4.6l-0.5,0.1
	l-15.5,28l10.2,6.1c-3.4,5.6-3.3,11.1,0,18l-0.1,0.4c-0.3,1.2-0.5,2.4-0.6,3.7v1h12.7l-6-5.7c-3.4-6.4-3.7-10.8-1.1-14.4
	L684.5,383.1z M673.5,392.4l0.1,0.1l2.5,2.4h-5.5l0.7-3.3l-0.2-0.3c-3.2-6.5-3.3-11.3-0.2-16.4l1.4,0.8
	C668.5,381.3,670.8,387.5,673.5,392.4z M668.9,359l17.9,10.8l-5.1,9.2l-18-10.7L668.9,359z M675.6,341.7c1.3,0,5.5,0.3,12.3,4.4
	s9.2,7.7,9.8,8.9l-14,25.3l-1.3-0.8l6.9-12.4l-19.6-11.7l-6.9,12.4l-1.2-0.8L675.6,341.7z M695.6,356l-8.6-5.2l-2.5,4.5l8.5,5.2
	L695.6,356z M685.9,355l1.5-2.7l6.8,4.1l-1.5,2.7L685.9,355z M684.5,349.4l-8.5-5.2l-2.5,4.5l8.5,5.2L684.5,349.4z M674.8,348.3
	l1.5-2.7l6.8,4.1l-1.5,2.7L674.8,348.3z M682.6,355.8c-1.1-0.6-2.4-0.2-3,0.8c-0.6,1.1-0.2,2.5,0.8,3.1c1.1,0.6,2.4,0.2,3-0.8
	C684,357.8,683.6,356.4,682.6,355.8z"></path>
  <path class="cover-icons" d="M791.7,370.5c-1.7,0-3.3,0.3-4.9,1c1.6-2.2,2.4-4.9,2.4-7.6c0.1-3.2-1-6.4-3-8.9c-1-1.3-1.7-2.4-1.7-4
	c0.1-1.5,0.4-3,1.1-4.4c0.7-1.5,1.1-3.1,1.2-4.8c-0.1-6-4.9-10.8-10.9-10.8s-10.8,4.8-10.8,10.8l0,0c0.1,1.7,0.5,3.3,1.2,4.8
	c0.7,1.4,1,2.9,1.1,4.4c0,1.6-0.8,2.6-1.7,4c-2,2.5-3.1,5.7-3,8.9c0,2.7,0.8,5.3,2.3,7.6c-3.2-1.3-6.7-1.3-9.8,0
	c4.2-6,2.7-14.2-3.3-18.4c-6-4.2-14.3-2.7-18.5,3.3c-3.2,4.5-3.2,10.6,0,15.1c-1.6-0.6-3.2-1-4.9-1c-7.5-0.1-13.5,5.8-13.5,13.2
	c0,7.3,5.9,13.3,13.3,13.3c7.4,0,13.4-5.9,13.4-13.2c0-2.7-0.8-5.4-2.4-7.6c1.4,0.6,2.9,0.9,4.4,1V396h1v-18.9c1.5-0.1,3-0.4,4.4-1
	c-4.2,6-2.7,14.2,3.3,18.4s14.3,2.7,18.5-3.3c3.2-4.5,3.2-10.6,0-15.1c1.4,0.6,2.9,0.9,4.4,1V396h1v-18.9c1.5-0.1,3-0.4,4.4-1
	c-4.2,6-2.7,14.2,3.4,18.4c6.1,4.2,14.3,2.7,18.5-3.3s2.7-14.2-3.4-18.4C797,371.2,794.4,370.4,791.7,370.5L791.7,370.5z M728.9,395
	v-3.9l6.8-6.8l-0.7-0.7l-6.2,6.1v-10.2h-1v10.3l-6.1-6.1l-0.7,0.7l6.8,6.8v3.8c-6.2-0.3-11-5.6-10.7-11.8c0.3-6.2,5.6-11,11.8-10.8
	s11.1,5.6,10.8,11.8C739.5,390,734.8,394.7,728.9,395L728.9,395z M744.7,371.3l6.8-6.8l-0.7-0.7l-6.1,6.1v-10.3h-1v15.5
	c-6.3-0.3-11.1-5.5-10.8-11.7s5.6-11,11.8-10.8c6.3,0.3,11.1,5.5,10.8,11.7c-0.3,5.8-5,10.5-10.8,10.8V371.3z M760.5,395v-3.9
	l6.8-6.8l-0.7-0.7l-6.1,6.1v-10.2h-1v10.3l-6.2-6.1l-0.7,0.7l6.8,6.8v3.8c-6.3-0.3-11.1-5.5-10.8-11.7s5.6-11,11.8-10.8
	s11.2,5.5,11,11.7C771.1,390,766.4,394.7,760.5,395L760.5,395z M776.4,371.3l6.8-6.8l-0.7-0.7l-6.2,6.1v-32h-1v7.5l-3.7-3.7
	l-0.7,0.7l4.4,4.4v28.4c-6.1-0.3-10.9-5.2-10.9-11.3c-0.1-2.8,0.9-5.6,2.7-7.8c1.1-1.5,2.1-2.9,2.1-5.1c0-1.8-0.5-3.5-1.2-5.2
	c-0.6-1.3-1-2.7-1-4.1c0-4.9,4-8.8,8.9-8.8s8.9,3.9,8.9,8.8l0,0c-0.1,1.4-0.4,2.8-1,4.1c-0.8,1.6-1.2,3.4-1.2,5.1
	c0,2.2,1,3.6,2.1,5.1c1.8,2.2,2.7,4.9,2.7,7.8c0,6.1-4.8,11-10.9,11.3L776.4,371.3L776.4,371.3z M792.2,395v-3.9l6.8-6.8l-0.7-0.7
	l-6.2,6.1v-10.2h-1v10.3l-6.1-6.2l-0.7,0.7l6.8,6.8v3.9c-6.3-0.3-11.1-5.5-10.8-11.7s5.6-11,11.8-10.8c6.3,0.2,11.2,5.5,10.9,11.7
	C802.7,390,798,394.7,792.2,395L792.2,395z"></path>
  <g>
    <path class="cover-icons_red" d="M888,286h-8.1l8-38.9h-8l8-38.9h-8l8-38.9h-8l8-38.9l-8,0.1l8-38.9h-21.1l-3.2-6.1l2.7-30.8l2.4-5.2l-2.7-5.9
  h-8.3l1.3-9.9h-6L852,0h-2.2l-0.6,33.7h-6.4l1.7,9.9h-8.7l-2.7,5.9l2.4,5.2l3.6,30.8l-3.2,6.1H815l8,38.9h-8l8,38.9h-8l8,38.9h-8
  l8,38.9h-8l8,38.8h-8l8.3,39.9l-8.1,71.1h72.7l-8.1-71.1L888,286z"></path>
    <path class="cover-icons" d="M888,286h-8.1l8-38.9h-8l8-38.9h-8l8-38.9h-8l8-38.9l-8,0.1l8-38.9h-21.1l-3.2-6.1l2.7-30.8l2.4-5.2l-2.7-5.9h-8.3l1.3-9.9
  h-6L852,0h-2.2l-0.6,33.7h-6.4l1.7,9.9h-8.7l-2.7,5.9l2.4,5.2l3.6,30.8l-3.2,6.1H815l8,38.9h-8l8,38.9h-8l8,38.9h-8l8,38.9h-8
  l8,38.8h-8l8.3,39.9l-8.1,71.1h72.7l-8.1-71.1L888,286z M856.6,35.7l-1,7.9h-9l-1.4-7.9H856.6z M835.3,49.5l1.8-3.9h27.5l1.8,3.9
  l-1.8,3.9h-27.4L835.3,49.5z M837.6,55.5h26.6l-2.6,29.2H841L837.6,55.5z M840.7,86.7H862l2.6,4.9h-26.4L840.7,86.7z M817.4,93.6
  H847v7.8h8.8v-7.8h29.6l-7.6,36.9h-52.7L817.4,93.6z M817.5,132.4H847v7.8h8.8v-7.8h29.7l-7.6,36.9h-52.8L817.5,132.4z
    M817.5,171.3H847v7.8h8.8v-7.8h29.7l-7.6,36.9h-52.8L817.5,171.3z M817.5,210.2H847v7.8h8.8v-7.8h29.7l-7.6,36.9h-52.8
  L817.5,210.2z M817.5,249.1H847v7.8h8.8v-7.8h29.7l-7.6,36.9h-52.8L817.5,249.1z M817.5,288H847v7.8h8.8V288h29.7l-7.6,36.9H861
  c-0.5-5.2-5.2-9-10.5-8.4c-4.5,0.5-8,4-8.5,8.4h-16.9L817.5,288z M855,322.5v6.8h-6.9v-6.8H855z M885.6,395h-68.2l7.8-68.2H842
  c0.5,5.2,5.2,9,10.5,8.4c4.5-0.5,8-4,8.5-8.4h16.8L885.6,395z"></path>
    <rect class="cover-icons" x="847" y="93.6" width="8.8" height="7.8">
      <animate attributeName="fill" begin="0s;light_1.end+4s" calcMode="linear" dur="3s" fill="remove" id="light_1" restart="always" values="#fff;#FFF59D;#fff"></animate>
    </rect>
    <rect class="cover-icons" x="847" y="132.4" width="8.8" height="7.8">
      <animate attributeName="fill" begin="3s;light_2.end+8s" calcMode="linear" dur="3s" fill="remove" id="light_2" restart="always" values="#fff;#FFF59D;#fff"></animate>
    </rect>
    <rect class="cover-icons" x="847" y="171.3" width="8.8" height="7.8">
      <animate attributeName="fill" begin="5s;light_3.end+9s" calcMode="linear" dur="3s" fill="remove" id="light_3" restart="always" values="#fff;#FFF59D;#fff"></animate>
    </rect>
    <rect class="cover-icons" x="847" y="210.2" width="8.8" height="7.8">
      <animate attributeName="fill" begin="4s;light_4.end+5s" calcMode="linear" dur="3s" fill="remove" id="light_4" restart="always" values="#fff;#FFF59D;#fff"></animate>
    </rect>
    <rect class="cover-icons" x="847" y="249.1" width="8.8" height="7.8">
      <animate attributeName="fill" begin="2s;light_5.end+2s" calcMode="linear" dur="3s" fill="remove" id="light_5" restart="always" values="#fff;#FFF59D;#fff"></animate>
    </rect>
    <rect class="cover-icons" x="847" y="288" width="8.8" height="7.8">
      <animate attributeName="fill" begin="6s;light_6.end+6s" calcMode="linear" dur="3s" fill="remove" id="light_6" restart="always" values="#fff;#FFF59D;#fff"></animate>
    </rect>
  </g>
  <path class="cover-icons" id="tree_r" d="M1006.5,370.5c-1.7,0-3.4,0.3-4.9,1c1.6-2.2,2.4-4.9,2.4-7.6c0.1-3.2-1-6.4-3-8.9c-1-1.3-1.7-2.4-1.7-4
	c0.1-1.5,0.4-3,1.1-4.4c0.7-1.5,1.1-3.1,1.2-4.8c-0.1-6-4.9-10.8-10.9-10.8s-10.9,4.8-10.9,10.7c0.1,1.7,0.5,3.3,1.2,4.8
	c0.7,1.4,1,2.9,1.1,4.4c0,1.6-0.8,2.6-1.7,4c-2,2.5-3.1,5.7-3,8.9c0,2.7,0.8,5.3,2.4,7.6c-3.2-1.3-6.7-1.3-9.8,0
	c4.2-6,2.7-14.2-3.3-18.4s-14.4-2.7-18.6,3.3c-3.2,4.5-3.2,10.6,0,15.1c-3.2-1.3-6.7-1.3-9.8,0c1.6-2.2,2.4-4.9,2.4-7.6
	c0.1-3.2-1-6.4-3-8.9c-1-1.3-1.7-2.4-1.7-4c0.1-1.5,0.4-3,1.1-4.4c0.7-1.5,1.1-3.1,1.2-4.8c-0.2-5.9-5-10.7-11-10.7
	s-10.9,4.8-10.9,10.7c0.1,1.7,0.5,3.3,1.2,4.8c0.7,1.4,1,2.9,1.1,4.4c0,1.6-0.8,2.6-1.7,4c-2,2.5-3.1,5.7-3,8.9
	c0,2.7,0.8,5.3,2.4,7.6c-1.6-0.6-3.2-1-4.9-1c-7.5,0-13.6,5.9-13.6,13.3s5.9,13.3,13.3,13.3c7.4,0,13.4-5.9,13.5-13.2
	c0-2.7-0.8-5.4-2.4-7.6c1.4,0.6,2.9,0.9,4.4,1V396h1v-18.9c1.5-0.1,3-0.4,4.4-1c-4.2,6-2.7,14.2,3.3,18.4s14.4,2.7,18.6-3.3
	c3.2-4.5,3.2-10.6,0-15.1c1.4,0.6,2.9,0.9,4.4,1V396h1v-18.9c1.5-0.1,3-0.4,4.4-1c-4.2,6-2.7,14.2,3.3,18.4s14.4,2.7,18.6-3.3
	c3.2-4.5,3.2-10.6,0-15.1c1.4,0.6,2.9,0.9,4.4,1V396h1v-18.9c1.5-0.1,3-0.4,4.4-1c-4.2,6-2.6,14.2,3.4,18.3
	c6.1,4.1,14.3,2.6,18.5-3.4s2.6-14.2-3.4-18.3C1011.9,371.2,1009.3,370.4,1006.5,370.5L1006.5,370.5z M911.8,395v-3.9l6.9-6.8
	l-0.7-0.7l-6.2,6.1v-10.2h-1v10.3l-6.2-6.1l-0.7,0.7l6.9,6.8v3.8c-6.2-0.3-11.1-5.5-10.8-11.7s5.6-11,11.9-10.7
	c6.3,0.3,11.1,5.5,10.9,11.7C922.4,390.1,917.7,394.8,911.8,395L911.8,395z M927.7,371.3l6.9-6.8l-0.7-0.7l-6.2,6.1v-32.1h-1v7.5
	l-3.8-3.7l-0.7,0.7l4.4,4.4v28.5c-6.1-0.3-10.8-5.3-10.8-11.3c-0.1-2.8,0.9-5.6,2.7-7.8c1.1-1.5,2.1-2.9,2.1-5.1
	c-0.1-1.8-0.5-3.5-1.2-5.2c-0.6-1.3-0.9-2.7-1-4.1c0-4.9,4-8.8,8.9-8.8s8.9,3.9,8.9,8.8l0,0c0,1.4-0.4,2.8-1,4.1
	c-0.8,1.6-1.2,3.4-1.2,5.2c0,2.2,1,3.6,2.1,5.1c1.8,2.2,2.8,4.9,2.7,7.8c0,6.1-4.8,11.1-11,11.3L927.7,371.3L927.7,371.3z
	 M943.6,395v-3.9l6.9-6.8l-0.7-0.7l-6.2,6.1v-10.2h-1v10.3l-6.2-6.1l-0.7,0.7l6.9,6.8v3.8c-6.3-0.3-11.1-5.5-10.9-11.7
	c0.2-6.2,5.6-11,11.9-10.7c6.3,0.3,11.1,5.5,10.9,11.7C954.2,390.1,949.5,394.8,943.6,395L943.6,395z M959.4,371.3l6.9-6.8l-0.7-0.7
	l-6.2,6.1v-10.3h-1v15.5c-6.3-0.3-11.1-5.5-10.9-11.7c0.2-6.2,5.6-11,11.9-10.7c6.3,0.3,11.1,5.5,10.9,11.7
	c-0.3,5.8-5,10.5-10.9,10.7V371.3z M975.3,395v-3.9l6.9-6.8l-0.7-0.7l-6.2,6.1v-10.2h-1v10.3l-6.2-6.2l-0.7,0.7l6.9,6.8v3.9
	c-6.3-0.3-11.1-5.5-10.9-11.7c0.3-6.2,5.6-11,11.9-10.7c6.3,0.3,11.1,5.5,10.9,11.7C985.9,390.1,981.2,394.8,975.3,395L975.3,395z
	 M991.2,371.3l6.9-6.8l-0.7-0.7l-6.2,6.1v-32h-1v7.5l-3.7-3.7l-0.7,0.7l4.4,4.4v28.5c-6.1-0.3-10.9-5.3-10.9-11.3
	c-0.1-2.8,0.9-5.6,2.7-7.8c1.1-1.5,2.1-2.9,2.1-5.1c-0.1-1.8-0.5-3.5-1.2-5.2c-0.6-1.3-0.9-2.7-1-4.1c0-4.9,4-8.8,8.9-8.8
	s8.9,3.9,8.9,8.8c0,1.4-0.4,2.8-1,4.1c-0.8,1.6-1.2,3.4-1.2,5.2c0,2.2,1,3.6,2.1,5.1c1.8,2.2,2.8,4.9,2.7,7.8c0,6-4.8,11-10.9,11.3
	L991.2,371.3z M1007,395v-3.9l6.9-6.8l-0.7-0.7l-6.2,6.1v-10.2h-1v10.3l-6.2-6.1l-0.7,0.7l6.9,6.8v3.8c-6.3-0.3-11.1-5.5-10.9-11.7
	c0.2-6.2,5.6-11,11.9-10.7c6.3,0.3,11.1,5.5,10.9,11.7C1017.6,390.1,1012.9,394.8,1007,395L1007,395z"></path>
</svg>