<svg version="1.1" id="cover-platform_r" xmlns="http://www.w3.org/2000/svg" xmlns:xlink="http://www.w3.org/1999/xlink" x="0px" y="0px" viewBox="0 0 280 182" style="enable-background:new 0 0 280 182;" xml:space="preserve">
  <style type="text/css">
    #cars {
      -webkit-transform-origin: 81.6px 78px;
      -ms-transform-origin: 81.6px 78px;
      transform-origin: 81.6px 78px;
      -webkit-animation: rotate-center 10s linear infinite both;
      animation: rotate-center 10s linear infinite both;
    }
    @-webkit-keyframes rotate-center {
      0% { -webkit-transform: rotate(0);}
      100% { -webkit-transform: rotate(360deg);}
    }
    @keyframes rotate-center {
      0% { transform: rotate(0);}
      100% { transform: rotate(360deg);}
    }

    #car_1 {
      -webkit-transform-origin: 81.6px 13.8px;
      -ms-transform-origin: 81.6px 13.8px;
      transform-origin: 81.6px 13.8px;
    }

    #car_2 {
      -webkit-transform-origin: 127px 32.7px;
      -ms-transform-origin: 127px 32.7px;
      transform-origin: 127px 32.7px;
    }

    #car_3 {
      -webkit-transform-origin: 146px 78px;
      -ms-transform-origin: 146px 78px;
      transform-origin: 146px 78px;
    }

    #car_4 {
      -webkit-transform-origin: 127px 123.6px;
      -ms-transform-origin: 127px 123.6px;
      transform-origin: 127px 123.6px;
    }

    #car_5 {
      -webkit-transform-origin: 81.6px 142.4px;
      -ms-transform-origin: 81.6px 142.4px;
      transform-origin: 81.6px 142.4px;
    }

    #car_6 {
      -webkit-transform-origin: 36.1px 123.6px;
      -ms-transform-origin: 36.1px 123.6px;
      transform-origin: 36.1px 123.6px;
    }

    #car_7 {
      -webkit-transform-origin: 17.3px 78px;
      -ms-transform-origin: 17.3px 78px;
      transform-origin: 17.3px 78px;
    }

    #car_8 {
      -webkit-transform-origin: 36.1px 32.6px;
      -ms-transform-origin: 36.1px 32.6px;
      transform-origin: 36.1px 32.6px;
    }

    #car_1, #car_2, #car_3, #car_4, #car_5, #car_6, #car_7, #car_8 {
      -webkit-animation: rotate-center_reverse 10s linear infinite both;
      animation: rotate-center_reverse 10s linear infinite both;
    }
    @-webkit-keyframes rotate-center_reverse {
      0% { -webkit-transform: rotate(0);}
      100% { -webkit-transform: rotate(-360deg);}
    }
    @keyframes rotate-center_reverse {
      0% { transform: rotate(0);}
      100% { transform: rotate(-360deg);}
    }
  </style>
  <polygon class="cover-icons" points="0,170 280,170 280,172 2,172 2,180 280,180 280,182 0,182 	"></polygon>
  <g>
    <path class="cover-icons" d="M109,154.3L88.2,88.7c3.5-2.2,5.9-6.1,5.9-10.6c0-6.9-5.6-12.5-12.5-12.5s-12.5,5.6-12.5,12.5c0,4.5,2.4,8.5,6,10.7
    l-20.8,65.5H23.9V172h115.5v-17.7H109z M71.1,78.1c0-5.8,4.7-10.5,10.5-10.5s10.5,4.7,10.5,10.5s-4.7,10.5-10.5,10.5
    S71.1,83.9,71.1,78.1z M31.7,170h-5.8v-13.7h5.8C31.7,156.3,31.7,170,31.7,170z M32.7,170v-13.7H39V170H32.7z M46.3,170H40v-13.7
    h6.3V170z M47.3,170v-13.7h6.4L49.3,170H47.3z M51.3,170l25.5-80.3c1.4,0.6,3,0.9,4.7,0.9s3.3-0.3,4.8-1l25.5,80.3H51.3V170z
      M116.1,170H114l-4.3-13.7h6.4V170z M123.3,170H117v-13.7h6.3V170z M130.6,170h-6.3v-13.7h6.3V170z M137.3,170h-5.8v-13.7h5.8V170
    z"></path>
    <path class="cover-icons" d="M81.6,125.3L81.6,125.3L81.6,125.3L81.6,125.3z"></path>
    <g id="cars">
      <path class="cover-icons" id="circles" d="M81.5,25.6C52.6,25.6,29,49.2,29,78.1s23.6,52.5,52.5,52.5S134,107,134,78.1S110.4,25.6,81.5,25.6z
      M81.5,88.6c-5.8,0-10.5-4.7-10.5-10.5s4.7-10.5,10.5-10.5S92,72.3,92,78.1S87.3,88.6,81.5,88.6z M89.6,68.6
    c-1.9-1.7-4.4-2.7-7.1-2.9V46.2c8.1,0.2,15.4,3.5,20.9,8.7L89.6,68.6z M80.5,65.7c-2.7,0.2-5.1,1.3-7.1,2.9L59.6,54.8
    c5.5-5.2,12.8-8.4,20.9-8.7V65.7z M72,70c-1.7,1.9-2.7,4.4-2.9,7.1H49.5c0.2-8.1,3.5-15.4,8.7-20.9L72,70z M69,79.1
    c0.2,2.7,1.3,5.1,2.9,7.1L58.2,100c-5.2-5.5-8.4-12.8-8.7-20.9H69z M73.4,87.6c1.9,1.7,4.4,2.7,7.1,2.9V110
    c-8.1-0.2-15.4-3.5-20.9-8.7L73.4,87.6z M82.5,90.6c2.7-0.2,5.1-1.3,7.1-2.9l13.8,13.8c-5.5,5.2-12.8,8.4-20.9,8.7V90.6z M91,86.2
    c1.7-1.9,2.7-4.4,2.9-7.1h19.5c-0.2,8.1-3.5,15.4-8.7,20.9L91,86.2z M93.9,77.1C93.7,74.4,92.6,72,91,70l13.8-13.8
    c5.2,5.5,8.4,12.8,8.7,20.9H93.9z M104.8,53.4c-5.9-5.5-13.7-9-22.3-9.3V32.7c11.8,0.3,22.5,5,30.4,12.6L104.8,53.4z M80.5,44.2
    c-8.6,0.3-16.4,3.7-22.3,9.3l-8.1-8.1c8-7.6,18.6-12.4,30.4-12.6V44.2z M56.8,54.8c-5.5,5.9-9,13.7-9.3,22.3H36
    c0.3-11.8,5-22.5,12.6-30.4L56.8,54.8z M47.5,79.1c0.3,8.6,3.7,16.4,9.3,22.3l-8.1,8.1c-7.6-8-12.4-18.6-12.6-30.4
    C36.1,79.1,47.5,79.1,47.5,79.1z M58.2,102.9c5.9,5.5,13.7,9,22.3,9.3v11.5c-11.8-0.3-22.5-5-30.4-12.6L58.2,102.9z M82.5,112.1
    c8.6-0.3,16.4-3.7,22.3-9.3l8.1,8.1c-8,7.6-18.6,12.4-30.4,12.6C82.5,123.5,82.5,112.1,82.5,112.1z M106.2,101.4
    c5.5-5.9,9-13.7,9.3-22.3H127c-0.3,11.8-5,22.5-12.6,30.4L106.2,101.4z M115.4,77.1c-0.3-8.6-3.7-16.4-9.3-22.3l8.1-8.1
    c7.6,8,12.4,18.6,12.6,30.4H115.4z M114.3,43.9c-8.3-8-19.5-13-31.8-13.2v-3c13.2,0.3,25.1,5.6,34,14.1L114.3,43.9z M80.5,30.7
    c-12.4,0.2-23.6,5.2-31.9,13.2l-2.1-2.1c8.9-8.5,20.8-13.8,34-14.1V30.7z M47.2,45.3c-8,8.3-13,19.5-13.2,31.8h-3
    C31.3,64,36.6,52,45.1,43.2L47.2,45.3z M34,79.1c0.3,12.3,5.2,23.5,13.2,31.8l-2.1,2.1c-8.5-8.9-13.8-20.8-14.1-34L34,79.1
    L34,79.1z M48.6,112.4c8.3,8,19.5,13,31.8,13.2v3c-13.2-0.3-25.1-5.6-34-14.1L48.6,112.4z M82.5,125.6
    c12.3-0.3,23.5-5.2,31.8-13.2l2.1,2.1c-8.9,8.5-20.8,13.8-34,14.1v-3C82.4,125.6,82.5,125.6,82.5,125.6z M115.7,111
    c8-8.3,13-19.5,13.2-31.8h3c-0.3,13.2-5.6,25.1-14.1,34L115.7,111z M128.9,77.1c-0.3-12.3-5.2-23.5-13.2-31.8l2.1-2.1
    c8.5,8.9,13.8,20.8,14.1,34L128.9,77.1L128.9,77.1z"></path>
      <path class="cover-icons" id="car_1" d="M81.6,1.5c-6.8,0-12.3,5.5-12.3,12.3s5.5,12.3,12.3,12.3s12.3-5.5,12.3-12.3S88.4,1.5,81.6,1.5z M72,18.2
    c-0.3-0.6-0.5-1.2-0.6-1.8h20.4c-0.2,0.6-0.4,1.2-0.6,1.8H72z M92.1,12.9h-6.3V4.2C89.2,5.7,91.7,9,92.1,12.9z M84.8,3.8v9.1h-6.4
    V3.8c1-0.3,2.1-0.5,3.2-0.5C82.7,3.3,83.8,3.5,84.8,3.8z M77.5,4.2V13h-6.4C71.5,9,74,5.7,77.5,4.2z"></path>
      <path class="cover-icons" id="car_2" d="M114.7,32.7c0,6.8,5.5,12.3,12.3,12.3s12.3-5.5,12.3-12.3s-5.5-12.3-12.3-12.3
    C120.3,20.3,114.7,25.9,114.7,32.7z M117.5,37c-0.3-0.6-0.5-1.2-0.6-1.8h20.4c-0.2,0.6-0.4,1.2-0.6,1.8H117.5z M123,23v8.8h-6.3
    C117,27.8,119.5,24.5,123,23z M127.1,22.2c1.1,0,2.2,0.2,3.2,0.5v9.1h-6.4v-9.1C124.9,22.3,126,22.2,127.1,22.2z M137.5,31.8h-6.3
    V23C134.7,24.5,137.2,27.8,137.5,31.8z"></path>
      <path class="cover-icons" id="car_3" d="M145.9,65.8c-6.8,0-12.3,5.5-12.3,12.3s5.5,12.3,12.3,12.3s12.3-5.5,12.3-12.3S152.7,65.8,145.9,65.8z
      M136.4,82.5c-0.3-0.6-0.5-1.2-0.6-1.8h20.4c-0.2,0.6-0.4,1.2-0.6,1.8H136.4z M156.4,77.2h-6.3v-8.8C153.5,70,156,73.3,156.4,77.2
    z M149.1,68.1v9.1h-6.4v-9.1c1-0.3,2.1-0.5,3.2-0.5S148.1,67.8,149.1,68.1z M141.8,68.5v8.8h-6.3C135.8,73.3,138.3,70,141.8,68.5z
    "></path>
      <path class="cover-icons" id="car_4" d="M127.1,111.3c-6.8,0-12.3,5.5-12.3,12.3s5.5,12.3,12.3,12.3c6.8,0,12.3-5.5,12.3-12.3S133.9,111.3,127.1,111.3
    z M117.5,128c-0.3-0.6-0.5-1.2-0.6-1.8h20.4c-0.2,0.6-0.4,1.2-0.6,1.8H117.5z M137.5,122.7h-6.3v-8.8
    C134.7,115.4,137.2,118.8,137.5,122.7z M130.3,113.6v9.1h-6.4v-9.1c1-0.3,2.1-0.5,3.2-0.5C128.2,113.1,129.3,113.3,130.3,113.6z
      M123,113.9v8.8h-6.3C117,118.8,119.5,115.4,123,113.9z"></path>
      <path class="cover-icons" id="car_5" d="M81.6,130.1c-6.8,0-12.3,5.5-12.3,12.3s5.5,12.3,12.3,12.3s12.3-5.5,12.3-12.3
    C93.9,135.7,88.4,130.1,81.6,130.1z M72,146.8c-0.3-0.6-0.5-1.2-0.6-1.8h20.4c-0.2,0.6-0.4,1.2-0.6,1.8H72z M92.1,141.5h-6.3v-8.8
    C89.2,134.3,91.7,137.6,92.1,141.5z M84.8,132.4v9.1h-6.4v-9.1c1-0.3,2.1-0.5,3.2-0.5C82.7,131.9,83.8,132.1,84.8,132.4z
      M77.5,132.8v8.8h-6.4C71.5,137.6,74,134.3,77.5,132.8z"></path>
      <path class="cover-icons" id="car_6" d="M23.8,123.6c0,6.8,5.5,12.3,12.3,12.3s12.3-5.5,12.3-12.3s-5.5-12.3-12.3-12.3
    C29.3,111.3,23.8,116.8,23.8,123.6z M26.6,128c-0.3-0.6-0.5-1.2-0.6-1.8h20.4c-0.2,0.6-0.4,1.2-0.6,1.8H26.6z M32,113.9v8.8h-6.3
    C26,118.8,28.5,115.4,32,113.9z M36.1,113.1c1.1,0,2.2,0.2,3.2,0.5v9.1h-6.4v-9.1C33.9,113.3,35,113.1,36.1,113.1z M46.6,122.7
    h-6.3v-8.8C43.7,115.4,46.2,118.8,46.6,122.7z"></path>
      <path class="cover-icons" id="car_8" d="M36.1,20.3c-6.8,0-12.3,5.5-12.3,12.3c0,6.9,5.5,12.4,12.3,12.4s12.3-5.5,12.3-12.3
    C48.5,25.9,42.9,20.3,36.1,20.3z M26.6,37c-0.3-0.6-0.5-1.2-0.6-1.8h20.4c-0.2,0.6-0.4,1.2-0.6,1.8H26.6z M46.6,31.8h-6.3V23
    C43.7,24.5,46.2,27.8,46.6,31.8z M39.3,22.7v9.1h-6.4v-9.1c1-0.3,2.1-0.5,3.2-0.5S38.3,22.3,39.3,22.7z M32,23v8.8h-6.3
    C26,27.8,28.5,24.5,32,23z"></path>
      <path class="cover-icons" id="car_7" d="M17.3,65.8C10.5,65.8,5,71.3,5,78.1s5.5,12.3,12.3,12.3s12.3-5.5,12.3-12.3S24.1,65.8,17.3,65.8z M7.7,82.5
    c-0.3-0.6-0.5-1.2-0.6-1.8h20.4c-0.2,0.6-0.4,1.2-0.6,1.8H7.7z M27.8,77.2h-6.3v-8.8C24.9,70,27.4,73.3,27.8,77.2z M20.5,68.1v9.1
    h-6.4v-9.1c1-0.3,2.1-0.5,3.2-0.5C18.4,67.6,19.5,67.8,20.5,68.1z M13.2,68.5v8.8H6.8C7.2,73.3,9.7,70,13.2,68.5z"></path>
    </g>
  </g>
  <path class="cover-icons" id="juming" d="M241.8,155.5l5-6.1l-26.4-19l-5.7-2.6l1-9.4l-8-3.4l-4.3,5.3l0.4,4.2l-0.7,0.7l-27.1-3.8l-10,0.2l-1,3l1.6,2.3
	l3,0.5v10.1l25.4,0.9l0.1,0.2l-4,2.9l-12.5,28.4h18l5.6-6.1l5.3,1.8l6.7-2.2l1.5-3.2l16.1,4.6l6.9,2.7H255v-4.9L241.8,155.5z
	 M244,149.7l-6.9,8.4l-19.5-15.9v-11l1.8,0.8L244,149.7z M217.5,144.6l6.5,5.3l-5.8-1.7l-1.2-2.3L217.5,144.6z M206.8,133.4
	l-4.5-6.5l1.5,0.2l3.2,4.5l6-2.5l-0.7,2.2L206.8,133.4z M208.4,117.3l5.3,2.3l-1,8.7l-5.5,2.2l-2.7-3.9l1.4-1.5l-0.4-4.2
	L208.4,117.3z M167.8,125.1l-0.6-0.9l0.2-0.7l8.1-0.1l-0.3,12.4l-3.5-0.1v-9.9L167.8,125.1z M176.1,135.8l0.3-12.4l24.6,3.4l4.9,7
	l-8.7,4.2l-0.9-1.5L176.1,135.8z M197.8,139.1l-0.2-0.3l9.1-4.4l6.3-2.4l0.8-2.6l2.8,1.2v10.9l-1.8,4.4l0.1,0.3l-4.4,5l-17.3-9
	L197.8,139.1z M196.8,164.4l2.7-2.5l1.2,0.7l-4,4.3L196.8,164.4z M195.7,168h-1.1l-11.5-3.4l1.9-4.4l10.8,4.3L195.7,168z
	 M182.7,165.5l8.5,2.5h-9.6L182.7,165.5z M201.7,161.6l-0.3,0.3l-2-1.2l-3.2,2.9l-10.8-4.3l7.2-16.3l17.5,9.1l-4.8,10.8L201.7,161.6
	z M253.1,165.6H239l-6.6-2.6l-17.8-5l-1.8,4l-5.2,1.7l-1.3-0.5l5-11l4.4-4.9l1.3,2.6l11,3.2l9.5,7.7l3.2-3.8l12.3,6.8L253.1,165.6z"></path>
</svg>