<svg version="1.1" id="cover-ocean" xmlns="http://www.w3.org/2000/svg" xmlns:xlink="http://www.w3.org/1999/xlink" x="0px" y="0px" viewBox="0 0 415 175" style="enable-background:new 0 0 415 175;" xml:space="preserve">
    <style type="text/css">
    #wave_1 {
      -webkit-animation: shake-horizontal 5.5s ease-in-out infinite both;
      animation: shake-horizontal 5.5s ease-in-out infinite both;
    }
    #wave_2 {
      -webkit-animation: shake-horizontal-alt 6s ease-in-out infinite both;
      animation: shake-horizontal 6s ease-in-out infinite both;
    }
    #wave_3 {
      -webkit-animation: shake-horizontal 4.5s ease-in-out infinite both;
      animation: shake-horizontal 4.5s ease-in-out infinite both;
    }
    @-webkit-keyframes shake-horizontal {
      0%, 100% { -webkit-transform: translateX(0); }
      10%, 30%, 50%, 70% { -webkit-transform: translateX(-5px); }
      20%, 40%, 60% { -webkit-transform: translateX(4px); }
      80% { -webkit-transform: translateX(3px); }
      90% { -webkit-transform: translateX(-2px); }
    }
    @keyframes shake-horizontal {
      0%, 100% { transform: translateX(0); }
      10%, 30%, 50%, 70% { transform: translateX(-5px); }
      20%, 40%, 60% { transform: translateX(4px); }
      80% { transform: translateX(3px); }
      90% { transform: translateX(-2px); }
    }
    @-webkit-keyframes shake-horizontal-alt {
      0%, 100% { -webkit-transform: translateX(0); }
      10%, 30%, 50%, 70% { -webkit-transform: translateX(-2px); }
      20%, 40%, 60% { -webkit-transform: translateX(1px); }
      80% { -webkit-transform: translateX(1.5px); }
      90% { -webkit-transform: translateX(-.5px); }
    }
    @keyframes shake-horizontal-alt {
      0%, 100% { transform: translateX(0); }
      10%, 30%, 50%, 70% { transform: translateX(-2px); }
      20%, 40%, 60% { transform: translateX(1px); }
      80% { transform: translateX(1.5px); }
      90% { transform: translateX(-.5px); }
    }

    #boat_m {
      -webkit-transform-origin: 50% 100%;
      -ms-transform-origin: 50% 100%;
      transform-origin: 50% 100%;
      -webkit-animation: shake-bottom 5s ease-in-out infinite both;
      animation: shake-bottom 5s ease-in-out infinite both;
    }
    #boat_s {
      -webkit-transform-origin: 50% 100%;
      -ms-transform-origin: 50% 100%;
      transform-origin: 50% 100%;
      -webkit-animation: shake-bottom 4s ease-in-out infinite both;
      animation: shake-bottom 4s ease-in-out infinite both;
    }
    @-webkit-keyframes shake-bottom {
      0%, 100% { -webkit-transform: rotate(0deg); }
      10% { -webkit-transform: rotate(2deg); }
      20%, 40%, 60% { -webkit-transform: rotate(-4deg); }
      30%, 50%, 70% { -webkit-transform: rotate(4deg); }
      80% { -webkit-transform: rotate(-2deg); }
      90% { -webkit-transform: rotate(2deg); }
    }
    @keyframes shake-bottom {
      0%, 100% { transform: rotate(0deg); }
      10% { transform: rotate(2deg); }
      20%, 40%, 60% { transform: rotate(-4deg); }
      30%, 50%, 70% { transform: rotate(4deg); }
      80% { transform: rotate(-2deg); }
      90% { transform: rotate(2deg); }
    }
</style>
    <path class="cover-icons" d="M270.7,49.7l-0.1-0.1c-1.2-1-2.6-1.7-4.2-2.1c-1.6-0.5-2.6-0.9-3-1.8c-1.6-3.5-2.7-4.7-7.2-8.3c-1-0.8-2.1-1.5-3.3-2
    c-1.3-0.5-2.4-1.4-3.1-2.6c-0.3-0.4-0.5-0.8-0.6-1.2c-0.8-2.3-3.1-3.8-5.6-3.4c-0.7,0-1.4,0-2.2-0.1c-0.9-0.2-1.7-0.5-2.5-1
    c-1.4-0.9-3.1-1.3-4.8-1c-1.1,0.2-2.1,0.7-2.8,1.5c-0.4,0.5-1.1,0.9-1.8,1c-0.3,0-0.7,0-1-0.1c-0.6-0.2-1.2-0.3-1.8-0.3
    c-1.2,0.1-2.4,0.4-3.5,1.1c-0.8,0.5-1.7,0.8-2.6,1c-0.7,0.1-1.5,0.1-2.2,0c-0.8-0.1-1.7-0.2-2.6-0.1c-2,0.1-7.4,1-9,3.1
    c-0.7,1-1.7,1.9-2.7,2.5c-0.7,0.4-1.3,0.9-1.7,1.6c-0.4,0.6-0.4,1.3-0.2,2c0.1,0.2,0.1,0.4-0.1,0.6c-0.2,0.4-0.5,0.7-0.7,1
    c-1,1-1.6,2.3-1.9,3.6c-0.1,0.4-0.8,4.2,0.7,5.8c0.4,0.4,0.9,0.7,1.4,0.8c0.3,0.1,0.4,0.2,0.6,0.3c0.1,0.2,0.1,0.4,0.1,0.6
    c0,0.7,0.2,1.5,0.6,2.1c0.5,0.6,1.1,1.1,1.9,1.3c0.5,0.1,0.9,0.4,1.3,0.7c0.5,0.4,0.8,1,1,1.6c0.2,1,1,1.7,2,1.8s2.1-0.1,3.1-0.4
    c1.6-0.4,3.3-0.8,4.7-0.1s2,2.8,1.9,4.6c0,0.8,0.5,1.4,1.3,2.3c0.8,0.8,1.5,1.8,2,2.8c0.6,1.2,0.9,2.6,1.1,3.9
    c0,1.1,0.2,2.1,0.6,3.1l0.2,0.5c0.4,1.4,0.4,3,0,4.4c-0.4,1.3-1.2,2.5-2.2,3.4c-0.3,0.3-0.6,0.7-0.8,1c-0.6-0.2-1.2-0.6-1.7-1
    l-1.3,1.5c2.5,2.3,6.4,2.3,8.9,0c1.1,1,2.5,1.6,4,1.7h0.4h0.2c1.6,0,3.2-0.6,4.4-1.7c1.2,1.1,2.8,1.7,4.4,1.7c0.2,0,0.4,0,0.7,0
    s0.4-0.1,0.7-0.1c1.1-0.2,2.2-0.8,3.1-1.6c2.5,2.3,6.4,2.3,8.9,0l-1.3-1.5c-0.3,0.3-0.7,0.5-1.1,0.7c-0.4-0.4-0.8-0.7-1.2-0.9
    c-1.1-0.8-1.9-1.4-1.9-2.4c0.1-0.8,0.4-1.6,1-2.2c1.1-1.3,1.9-2.9,2.3-4.6c0.2-0.7,0.3-1.5,0.3-2.2c-0.1-0.5,0.1-0.9,0.4-1.3
    c0.8-0.9,1.9-1.6,3.1-2c1.2-0.4,2.3-1.1,3.1-2.1c0.5-0.6,1.1-1.1,1.7-1.4c1.7-1,3.2-2.4,4.5-3.9c1.3-1.3,2.9-2.4,4.6-3.1
    c2.2-1.2,4.1-2.2,4.6-3.9C274.1,53.6,273.1,51.7,270.7,49.7z M271.7,54.7c-0.2,0.8-2,1.8-3.6,2.6c-1.9,0.9-3.6,2.1-5.1,3.6
    c-1.1,1.4-2.5,2.6-4,3.5c-0.9,0.5-1.7,1.2-2.3,2.1c-0.6,0.6-1.4,1.1-2.2,1.3c-1.5,0.5-2.9,1.4-3.9,2.6c-0.5,0.7-0.8,1.5-0.7,2.4
    c0,0.6-0.1,1.2-0.2,1.8c-0.3,1.4-1,2.7-1.9,3.8c-0.9,0.9-1.4,2.2-1.5,3.5c0.1,1.6,1,3,2.4,3.8c-1-0.2-1.9-0.6-2.6-1.3
    c-0.6-0.6-1.7-0.6-2.3,0s-1.5,1.1-2.3,1.3l-0.5,0.1h-0.5c-1.2,0-2.4-0.5-3.3-1.4c-0.6-0.6-1.7-0.6-2.3,0c-0.9,0.9-2,1.4-3.3,1.4
    h-0.4c-1.1-0.1-2.1-0.6-2.9-1.3c-0.6-0.6-1.7-0.6-2.3,0s-1.3,1-2.1,1.2c1.1-1.1,1.9-2.5,2.4-4c0.5-1.8,0.5-3.8,0-5.6l-0.2-0.5
    c-0.3-0.8-0.5-1.7-0.5-2.6c-0.2-1.6-0.6-3.2-1.3-4.7c-0.6-1.2-1.4-2.4-2.4-3.4c-0.3-0.3-0.5-0.6-0.8-0.9c0.1-2.4-0.7-5.2-3-6.4
    c-2.1-1-4.3-0.5-6-0.1c-0.8,0.2-1.5,0.4-2.3,0.3c-0.1,0-0.1,0-0.2-0.1c-0.1-0.1-0.1-0.3-0.2-0.4c-0.3-0.9-0.8-1.7-1.5-2.4
    c-0.6-0.6-1.3-1-2-1.2c-0.5-0.2-0.8-0.3-0.9-0.5c-0.2-0.4-0.3-0.8-0.3-1.2c0-0.6-0.2-1.2-0.5-1.7c-0.4-0.5-1-0.9-1.6-1.1
    c-0.2,0-0.4-0.1-0.6-0.3c-0.5-0.6-0.5-2.7-0.2-4c0.2-1,0.7-2,1.4-2.7c0.4-0.4,0.7-0.9,1-1.4c0.4-0.6,0.5-1.4,0.2-2.1
    c-0.1-0.2-0.1-0.4,0.1-0.5c0.3-0.3,0.6-0.6,1-0.8c1.3-0.8,2.4-1.8,3.3-3c0.9-1.2,5.2-2.3,7.4-2.3c0.8,0,1.5,0,2.3,0.1
    c0.9,0.2,1.8,0.2,2.8,0c1.2-0.2,2.3-0.6,3.3-1.3c0.8-0.5,1.6-0.8,2.6-0.9c0.4,0,0.8,0,1.1,0.2c0.6,0.2,1.2,0.3,1.7,0.2
    c1.2-0.1,2.2-0.6,3-1.5c0.5-0.5,1.1-0.9,1.8-1c1.2-0.2,2.5,0.1,3.5,0.8c1,0.6,2,1,3.2,1.2c0.8,0.1,1.7,0.1,2.5,0.1
    c0.7-0.1,1.4,0,2,0.2c0.7,0.5,1.3,1.2,1.5,2c0.2,0.4,0.4,0.8,0.7,1.3c0.9,1.5,2.3,2.7,3.9,3.4c1,0.5,2,1.1,2.9,1.8
    c4.3,3.4,5.2,4.5,6.7,7.6c0.8,1.7,2.5,2.3,4.2,2.8c1.2,0.3,2.4,0.9,3.4,1.7l0.2,0.1C271.7,53.1,271.8,54.3,271.7,54.7z"></path>
    <path class="cover-icons" id="wave_1" d="M320.7,97.9c-2.6,2.4-6.7,2.4-9.3-0.2c-0.7-0.7-1.9-0.7-2.7,0c-0.9,0.9-2.1,1.6-3.4,1.8c-0.2,0-0.5,0.1-0.7,0.1
    s-0.4,0-0.7,0c-1.8,0-3.5-0.7-4.8-1.9c-0.7-0.7-1.9-0.7-2.7,0c-1.3,1.3-3,2-4.8,2h-0.1h-0.4c-1.6-0.1-3.1-0.8-4.3-2
    c-0.7-0.7-1.9-0.8-2.7,0l0,0c-2.5,2.6-6.6,2.6-9.3,0.2l-1.3,1.5c3.4,3.1,8.7,3.1,12-0.2c1.5,1.4,3.4,2.3,5.5,2.5h0.5h0.2
    c2.3,0,4.5-0.9,6.1-2.5c1.6,1.6,3.8,2.5,6.1,2.5c0.3,0,0.6,0,0.9,0s0.6-0.1,0.9-0.1c1.6-0.4,3.1-1.2,4.3-2.3
    c3.3,3.2,8.5,3.3,11.9,0.2L320.7,97.9z"></path>
    <path class="cover-icons" id="wave_2" d="M157.5,78.6c-1.8,0-3.5-0.7-4.7-2c-0.7-0.7-1.9-0.7-2.7,0l0,0c-0.9,0.9-2.1,1.6-3.4,1.8c-0.2,0-0.5,0.1-0.7,0.1
    h-0.6h-0.2c-1.8,0-3.4-0.8-4.7-2c-0.7-0.7-1.9-0.7-2.7,0c-1.2,1.3-2.9,2-4.7,2H133h-0.4c-1.6-0.1-3.1-0.8-4.3-2
    c-0.7-0.7-1.9-0.8-2.7,0l0,0c-2.5,2.6-6.6,2.6-9.3,0.2l-1.3,1.6c3.4,3.1,8.7,3.1,12-0.2c1.5,1.4,3.4,2.3,5.4,2.5h0.5h0.2
    c2.3,0,4.5-0.9,6.1-2.5c1.6,1.6,3.8,2.5,6,2.5h0.3c0.2,0,0.5,0,0.8,0s0.6-0.1,0.9-0.1c1.6-0.3,3.1-1.1,4.3-2.3
    c3.3,3.2,8.5,3.3,11.9,0.2l-1.4-1.6C160.8,78,159.1,78.6,157.5,78.6z"></path>
    <path class="cover-icons" id="wave_3" d="M210.5,118.9L210.5,118.9c-0.2,0-0.5,0.1-0.7,0.1s-0.4,0-0.7,0c-1.8,0-3.5-0.7-4.8-2c-0.7-0.7-1.9-0.7-2.7,0
    c-1.3,1.3-3,2-4.9,2h-0.1h-0.4c-1.6-0.1-3.2-0.8-4.3-2c-0.7-0.8-1.9-0.8-2.7,0l0,0c-2.6,2.6-6.7,2.7-9.4,0.2l-1.3,1.5
    c3.4,3.2,8.7,3.1,12.1-0.2c1.5,1.5,3.4,2.3,5.5,2.5h0.5h0.1c2.3,0,4.5-0.9,6.2-2.5c1.6,1.6,3.9,2.5,6.2,2.5c0.3,0,0.6,0,0.9,0
    c0.3,0,0.5-0.1,0.7-0.1l0,0c1.6-0.3,3.1-1.1,4.3-2.2l-1.3-1.5C212.7,118,211.6,118.6,210.5,118.9z"></path>
    <g class="cover-icons" id="boat_m">
        <path d="M121.7,150.4c-0.8,0.7-1.6,1.2-2.6,1.6l3.3-9.4c0.2-0.7,0.1-1.4-0.3-2s-1.1-0.9-1.9-0.9h-4.4l-4.3-12.3V123H67
        v4.3l-6.5,12.4h-8.1c-0.9,0-1.7,0.5-2.1,1.3c-0.4,0.8-0.2,1.7,0.3,2.3l8.1,9.3c-1.5-0.4-3-1.2-4.2-2.2l-1.4,1.5
        c2.1,1.8,4.8,2.9,7.6,3l0.1,0.1l0.1-0.1h0.5c3.2,0,6.3-1.2,8.7-3.4c0.1-0.1,0.3-0.1,0.4,0l0,0c1.7,1.6,3.9,2.7,6.2,3.2
        c0.4,0.1,0.8,0.1,1.2,0.2H78c0.4,0,0.7,0.1,1.1,0.1h0.1c3.2,0,6.3-1.2,8.7-3.4c0.1-0.1,0.3-0.1,0.4,0c2.3,2.2,5.4,3.4,8.7,3.4h0.3
        H98c2.9-0.2,5.7-1.4,7.8-3.4c0.1-0.1,0.3-0.1,0.4,0l0,0c4.7,4.4,12,4.6,16.9,0.4L121.7,150.4z M68.6,128.5h41.1l3.9,11.2h-51
        L68.6,128.5z M107.5,150.1c-0.9-0.9-2.4-0.9-3.3,0c-1.8,1.7-4.1,2.7-6.5,2.8l-0.5,0.1h-0.3c-2.7,0-5.3-1-7.2-2.9
        c-0.9-0.9-2.4-0.9-3.3,0c-1.9,1.8-4.4,2.8-7.1,2.9h-0.2c-0.3,0-0.6,0-0.9,0h-0.1c-0.3,0-0.6-0.1-1-0.1c-2-0.4-3.8-1.4-5.2-2.8
        c-0.9-0.9-2.4-0.9-3.3,0c-1.9,1.8-4.4,2.8-7,2.9L52,142.1c-0.1-0.1-0.1-0.2,0-0.3c0-0.1,0.1-0.2,0.3-0.1h68c0.1,0,0.2,0,0.2,0.1
        s0,0.2,0,0.3l-3.8,10.8C113.4,153.4,110,152.4,107.5,150.1L107.5,150.1z"></path>
        <polygon points="67.5,136.8 79.9,136.8 79.9,131.3 69.9,131.3 	">
            <animate id="m_windows_1" attributeName="fill" begin="0s;m_windows_1.end+2s" calcMode="ease-in-put" dur="2s" fill="remove" restart="always" values="#fff;#FFF59D;#fff"></animate>
        </polygon>
        <rect x="83.4" y="131.3" width="11.1" height="5.5">
            <animate id="m_windows_2" attributeName="fill" begin="1s;m_windows_2.end+2s" calcMode="ease-in-put" dur="2s" fill="remove" restart="always" values="#fff;#FFF59D;#fff"></animate>
        </rect>
        <polygon points="98,131.3 98,136.8 109.6,136.8 108,131.3 	">
            <animate id="m_windows_3" attributeName="fill" begin="2s;m_windows_3.end+2s" calcMode="ease-in-put" dur="2s" fill="remove" restart="always" values="#fff;#FFF59D;#fff"></animate>
        </polygon>
    </g>
    <g class="cover-icons" id="boat_s">
        <path d="M371.8,34.5c-0.3-0.7-1-1.2-1.8-1.2h-6.2l-5-9.8V20h-35v3.6l-3.3,9.7h-3.2c-1.1,0-2,0.9-2,2
        c0,0.2,0,0.4,0.1,0.6l2.4,7c-0.5-0.3-1-0.6-1.5-1l-1.3,1.6c1.8,1.6,4.1,2.5,6.5,2.5c2.6,0,5.1-1,6.9-2.8c1.7,1.6,3.8,2.6,6.2,2.8
        h0.6h0.2c2.6,0,5.1-1,6.9-2.8c1.8,1.8,4.3,2.8,6.9,2.8c0.3,0,0.6,0,1,0s0.6-0.1,1-0.2c1.8-0.4,3.5-1.3,4.9-2.6
        c1.8,1.8,4.3,2.8,6.9,2.8h0.6l0,0c2.2-0.1,4.3-1,5.9-2.5l-1.4-1.5c-0.7,0.6-1.5,1.2-2.4,1.5l5.8-6.9
        C372,36.1,372.1,35.2,371.8,34.5z M325.6,24.8h31.6l4.4,8.5h-38.9L325.6,24.8z M362.6,44c-1.9-0.1-3.8-0.9-5.2-2.2
        c-0.8-0.8-2-0.8-2.8,0l0,0c-1.1,1.1-2.4,1.8-3.9,2.1c-0.2,0-0.5,0.1-0.8,0.1s-0.5,0-0.8,0c-2,0-4-0.8-5.5-2.2c-0.8-0.8-2-0.8-2.8,0
        l0,0c-1.5,1.5-3.5,2.3-5.5,2.3h-0.1h-0.5c-1.8-0.1-3.6-0.9-4.9-2.2c-0.8-0.8-2-0.8-2.8,0l0,0c-1.8,1.8-4.3,2.6-6.8,2.1l-2.9-8.5
        H370L362.6,44z"></path>
        <polygon points="356.3,26.9 348.5,26.9 348.5,31.3 358.1,31.3 	">
            <animate id="s_windows_1" attributeName="fill" begin="0s;s_windows_1.end+2s" calcMode="ease-in-put" dur="2s" fill="remove" restart="always" values="#fff;#FFF59D;#fff"></animate>
        </polygon>
        <rect x="337.3" y="26.9" width="8.6" height="4.4">
            <animate id="s_windows_2" attributeName="fill" begin="1s;s_windows_2.end+2s" calcMode="ease-in-put" dur="2s" fill="remove" restart="always" values="#fff;#FFF59D;#fff"></animate>
        </rect>
        <polygon points="325.6,31.3 334.6,31.3 334.6,26.9 326.9,26.9 	">
            <animate id="s_windows_3" attributeName="fill" begin="2s;s_windows_3.end+2s" calcMode="ease-in-put" dur="2s" fill="remove" restart="always" values="#fff;#FFF59D;#fff"></animate>
        </polygon>
    </g>
</svg>