<svg version="1.1" id="ruby_taiwan_logo" xmlns="http://www.w3.org/2000/svg" xmlns:xlink="http://www.w3.org/1999/xlink" x="0px" y="0px" viewBox="0 0 245 245" style="enable-background:new 0 0 245 245;" xml:space="preserve">
	<style type="text/css">
		#sun {
			-webkit-transform-origin: 50% 50%;
			-ms-transform-origin: 50% 50%;
			transform-origin: 50% 50%;
			-webkit-animation: rotate-center 10s linear infinite both;
			animation: rotate-center 10s linear infinite both;
		}
		@-webkit-keyframes rotate-center {
			0% { -webkit-transform: rotate(0);}
			100% { -webkit-transform: rotate(360deg);}
		}
		@keyframes rotate-center {
			0% { transform: rotate(0);}
			100% { transform: rotate(360deg);}
		}
		@-moz-document url-prefix() {
			#sun {
				animation: none !important;
			}
		}
	</style>
	<title>Ruby_Taiwan_Logo</title>
	<path class="cover-icons" id="sun" d="M68.4,26.2c-3-1.3-6.2-2.2-9.5-2.5c-0.2,0-0.4-0.2-0.4-0.5c0-0.1,0-0.1,0-0.2l9.9-17.8C68.7,5,69,4.9,69.2,5.1
	c0.1,0.1,0.2,0.2,0.2,0.4l-0.3,20.4c0,0.2-0.2,0.4-0.4,0.4C68.6,26.3,68.5,26.3,68.4,26.2z M51.3,23.1L41.4,5.2
	C41.3,5,41,4.9,40.8,5.1c-0.1,0.1-0.2,0.2-0.2,0.4l0.3,20.4c0,0.2,0.2,0.4,0.4,0.4c0.1,0,0.1,0,0.2,0c3-1.3,6.2-2.2,9.5-2.5
	c0.2,0,0.4-0.2,0.4-0.5C51.4,23.2,51.4,23.1,51.3,23.1L51.3,23.1z M34.6,29.5L17.1,19c-0.2-0.1-0.5-0.1-0.6,0.2
	c-0.1,0.1-0.1,0.3,0,0.4L27,37.1c0.1,0.2,0.4,0.3,0.6,0.1l0.1-0.1c2-2.6,4.3-5,6.9-6.9C34.8,30,34.8,29.8,34.6,29.5
	C34.7,29.5,34.6,29.5,34.6,29.5z M86.3,44.1c1.3,3,2.2,6.2,2.5,9.5c0,0.2,0.2,0.4,0.5,0.4c0.1,0,0.1,0,0.2,0l17.8-9.9
	c0.2-0.1,0.3-0.4,0.2-0.6c-0.1-0.1-0.2-0.2-0.4-0.2l-20.4,0.3C86.5,43.6,86.3,43.8,86.3,44.1C86.2,43.9,86.3,44,86.3,44.1z
	 M23.3,43.4L2.9,43.1c-0.2,0-0.4,0.2-0.4,0.4s0.1,0.3,0.2,0.4l17.8,9.9c0.2,0.1,0.5,0,0.6-0.2c0,0,0-0.1,0-0.2
	c0.4-3.3,1.2-6.4,2.5-9.5c0.1-0.2,0-0.5-0.2-0.6C23.4,43.5,23.4,43.5,23.3,43.4z M83,37.1l10.5-17.5c0.1-0.2,0.1-0.5-0.2-0.6
	c-0.1-0.1-0.3-0.1-0.4,0L75.4,29.5c-0.2,0.1-0.3,0.4-0.1,0.6l0.1,0.1c2.6,2,5,4.3,6.9,6.9C82.5,37.3,82.7,37.3,83,37.1
	C83,37.2,83,37.1,83,37.1z M75.4,85.5L92.9,96c0.2,0.1,0.5,0.1,0.6-0.2c0.1-0.1,0.1-0.3,0-0.4L83,77.9c-0.1-0.2-0.4-0.3-0.6-0.1
	l-0.1,0.1c-2,2.6-4.3,5-6.9,6.9C75.2,85,75.2,85.2,75.4,85.5C75.3,85.5,75.4,85.5,75.4,85.5z M86.7,71.6l20.4,0.3
	c0.2,0,0.4-0.2,0.4-0.4c0-0.2-0.1-0.3-0.2-0.4l-17.8-9.9c-0.2-0.1-0.5,0-0.6,0.2c0,0,0,0.1,0,0.2c-0.4,3.3-1.2,6.4-2.5,9.5
	C86.3,71.3,86.4,71.6,86.7,71.6C86.5,71.6,86.6,71.6,86.7,71.6z M58.7,92l9.9,17.8c0.1,0.2,0.4,0.3,0.6,0.2c0.1-0.1,0.2-0.2,0.2-0.4
	l-0.3-20.4c0-0.2-0.2-0.4-0.4-0.4c-0.1,0-0.1,0-0.2,0c-3,1.3-6.2,2.2-9.5,2.5c-0.2,0-0.4,0.2-0.4,0.5C58.6,91.9,58.6,91.9,58.7,92z
	 M40.9,89.2l-0.3,20.4c0,0.2,0.2,0.4,0.4,0.4s0.3-0.1,0.4-0.2L51.3,92c0.1-0.2,0-0.5-0.2-0.6c0,0-0.1,0-0.2,0
	c-3.3-0.4-6.4-1.2-9.5-2.5c-0.2-0.1-0.5,0-0.6,0.2C41,89.1,41,89.1,40.9,89.2z M20.5,61.2L2.7,71.1c-0.2,0.1-0.3,0.4-0.2,0.6
	c0.1,0.1,0.2,0.2,0.4,0.2l20.4-0.3c0.2,0,0.4-0.2,0.4-0.4c0-0.1,0-0.1,0-0.2c-1.3-3-2.2-6.2-2.5-9.5c0-0.2-0.2-0.4-0.4-0.4
	C20.7,61.1,20.6,61.1,20.5,61.2z M27,77.9L16.5,95.4c-0.1,0.2-0.1,0.5,0.2,0.6c0.1,0.1,0.3,0.1,0.4,0l17.5-10.5
	c0.2-0.1,0.3-0.4,0.1-0.6l-0.1-0.1c-2.6-2-5-4.3-6.9-6.9C27.5,77.7,27.3,77.7,27,77.9C27,77.8,27,77.9,27,77.9z M55,31.6
	c-14.3,0-25.9,11.6-25.9,25.9S40.7,83.4,55,83.4s25.9-11.6,25.9-25.9S69.3,31.6,55,31.6L55,31.6z"></path>
	<path class="cover-icons_red" d="M185.6,58.2H64L9.7,120.6l115.1,122.3l115.1-122.3L185.6,58.2z"></path>
	<path class="cover-icons" d="M186.9,56.1H62.5L7,119.9L124.7,245l117.7-125.1L186.9,56.1z M170.9,122.7l-46.3,110.7L78.4,122.7H170.9z M80.2,117
	l17.3-20.9l21.2,20.9H80.2z M131.5,117L152,96.4l17.1,20.6H131.5z M125.1,115.4l-23.9-23.6l23.5-28.3L148.4,92L125.1,115.4z
	 M130.7,61.7h47.9L152.5,88L130.7,61.7z M97.1,87.7l-26.3-26h47.9L97.1,87.7z M93.4,92.2L72.8,117H17.1L64,63.1L93.4,92.2z
	 M72.2,122.7L116,227.5L17.4,122.7H72.2z M177.2,122.7H232l-98.5,104.8L177.2,122.7z M176.6,117l-20.4-24.6l29.2-29.3l46.9,53.9
	H176.6z"></path>
</svg>