<svg version="1.1" id="ruby_taiwan_logotype" xmlns="http://www.w3.org/2000/svg" xmlns:xlink="http://www.w3.org/1999/xlink" x="0px" y="0px" viewBox="0 0 420 85" style="enable-background:new 0 0 420 85;" xml:space="preserve">
  <style type="text/css">
    #star {
      -webkit-transform-origin: 50% 50%;
      -ms-transform-origin: 50% 50%;
      transform-origin: 50% 50%;
      -webkit-animation: pulsate_star 2s ease-in-out infinite both;
      animation: pulsate_star 2s ease-in-out infinite both;
    }
    @-webkit-keyframes pulsate_star {
      0% { -webkit-transform: scale(0.9);}
      50% { -webkit-transform: scale(1.3); }
      100% { -webkit-transform: scale(0.9); }
    }
    @keyframes pulsate_star {
      0% { transform: scale(0.9);}
      50% { transform: scale(1.3); }
      100% { transform: scale(0.9); }
    }
		@-moz-document url-prefix() {
			#star {
				animation: none !important;
			}
		}
  </style>
  <title>Ruby Taiwan Logotype</title>
  <g>
    <path class="cover-icons" d="M42.8,4.2c-1.7-1.4-3.7-2.4-5.8-3c-2.7-0.8-5.5-1.2-8.3-1.1c-2.3,0-4.6,0.3-6.9,0.8C17.3,2,13,4,9.2,6.8
    c-1.8,1.3-3.4,2.8-4.8,4.5c-1.3,1.6-2.4,3.3-3.2,5.2C0.4,18.3,0,20.2,0,22.1c0,1.3,0.2,2.7,0.6,3.9c0.3,1,0.9,1.9,1.7,2.5
    C3.1,29.2,4,29.7,5,29.9c1.2,0.3,2.5,0.5,3.8,0.4c0-0.2-0.1-0.4-0.2-0.6c-0.2-0.3-0.3-0.6-0.4-0.9c-0.2-0.5-0.3-1.1-0.4-1.6
    c-0.1-0.9-0.2-1.8-0.2-2.6c-0.1-3,0.5-5.9,1.5-8.7c1-2.5,2.5-4.7,4.5-6.5c2-1.8,4.4-3.2,7-4.1c2.9-1,6-1.5,9-1.4
    c1.4,0,2.8,0.2,4.1,0.7c1.1,0.4,2,1.1,2.8,2c0.7,0.8,1.2,1.8,1.5,2.8c0.4,1.1,0.5,2.3,0.5,3.4c0,1.7-0.3,3.4-0.9,5.1
    c-0.6,1.7-1.4,3.3-2.4,4.8c-1,1.4-2.2,2.6-3.7,3.6c-1.4,0.9-3,1.4-4.6,1.4h-0.6l3.9-19.6L18.3,9.7L7.2,63.8L19,63.7l6.5-32
    c0.5-0.1,1-0.2,1.5-0.3c0.4,0,0.9,0,1.2,0c0.8,0,1.6,0.1,2.3,0.4c0.6,0.2,1.1,0.7,1.5,1.2c0.4,0.5,0.7,1.2,0.8,1.8
    c0.2,0.8,0.3,1.6,0.3,2.3c0,1.8-0.3,3.7-0.7,5.4c-0.5,2-1,4-1.5,6c-0.6,2-1.1,4-1.5,5.9c-0.4,1.6-0.6,3.3-0.7,5
    c0,0.7,0.1,1.4,0.3,2c0.2,0.7,0.5,1.3,1,1.8c0.5,0.6,1.2,1,1.9,1.3c1,0.4,2.1,0.6,3.2,0.5c1.2,0,2.3-0.1,3.5-0.3
    c1.6-0.3,3.1-0.7,4.6-1.1c-1-0.4-1.8-1.1-2.3-2.1c-0.6-1.1-0.9-2.3-0.9-3.5c0-1.6,0.2-3.1,0.6-4.6c0.4-1.7,0.9-3.6,1.4-5.5
    s1-3.8,1.4-5.8c0.4-1.8,0.6-3.7,0.6-5.6c0-1-0.1-1.9-0.3-2.9c-0.2-0.9-0.5-1.7-0.9-2.5c-0.4-0.8-1-1.4-1.7-1.9
    c-0.8-0.6-1.7-1-2.7-1.3c1.4-0.8,2.6-1.8,3.8-3c1.1-1.1,2-2.3,2.8-3.6c0.7-1.2,1.3-2.5,1.7-3.9c0.4-1.3,0.6-2.6,0.6-4
    c0-1.8-0.4-3.5-1.1-5.1C45.4,6.8,44.2,5.3,42.8,4.2z"></path>
    <path class="cover-icons" d="M120.6,24.3c-0.8-1.1-1.9-1.9-3.1-2.5c-1.3-0.5-2.6-0.8-3.9-0.8c-0.4,0-0.8,0-1.3,0c-0.5,0-1,0.2-1.5,0.3
    c-0.6,0.2-1.2,0.4-1.8,0.7c-0.8,0.4-1.5,0.8-2.2,1.3l3.9-19.1L98.7,6l-8.8,42.7c-0.1,0.2-0.1,0.4-0.1,0.6c-0.2,0.7-0.5,1.4-0.8,2
    c-0.4,0.9-0.9,1.7-1.5,2.4c-0.5,0.6-1.2,1.2-1.9,1.6c-0.7,0.4-1.4,0.6-2.2,0.6c-0.9,0.1-1.8-0.2-2.5-0.7c-0.6-0.7-0.9-1.6-0.8-2.5
    c0-0.4,0-0.9,0.1-1.3c0.1-0.5,0.1-0.9,0.3-1.4l5.9-28.8H74.4l-5.5,27.2c-0.3,1-0.7,2-1.1,3c-0.4,0.9-0.9,1.7-1.4,2.4
    c-0.5,0.6-1.1,1.2-1.8,1.6c-0.7,0.4-1.4,0.6-2.2,0.6c-0.8,0.1-1.5-0.3-1.9-1c-0.4-0.8-0.5-1.6-0.5-2.5c0-0.8,0.1-1.6,0.2-2.4
    L66,21.2H54.2l-5.5,27.2c-0.2,1.1-0.4,2.1-0.5,3c-0.1,0.8-0.2,1.7-0.2,2.5c0,1.6,0.2,3.1,0.7,4.6c0.4,1.2,1,2.3,1.9,3.2
    c0.8,0.8,1.7,1.4,2.8,1.8c1.1,0.4,2.3,0.6,3.4,0.6c0.9,0,1.8-0.1,2.8-0.3c1.1-0.2,2.1-0.6,3.1-1.1c1.1-0.7,2.2-1.5,3.1-2.5
    c1.2-1.3,2.2-2.7,3.1-4.2c0.1,2.3,1,4.4,2.5,6c1.5,1.4,3.5,2.1,5.6,2c0.8,0,1.6-0.1,2.4-0.2c0.9-0.2,1.9-0.4,2.8-0.8
    c1-0.4,2-1,3-1.6c1.1-0.8,2.1-1.8,3-2.8c0.6-0.7,1.1-1.4,1.6-2.2c0.4,1.8,1.3,3.5,2.6,4.9c2.4,2.1,5.5,3.1,8.6,2.9
    c2.6,0.1,5.3-0.4,7.7-1.4c2.1-0.9,4.1-2.2,5.8-3.8c1.6-1.6,3.1-3.4,4.2-5.4c1.1-2,2-4.1,2.8-6.2c0.7-2,1.2-4.2,1.5-6.3
    c0.3-1.8,0.4-3.7,0.5-5.6c0-2.3-0.2-4.6-0.7-6.8C122.2,27.2,121.5,25.7,120.6,24.3z M114.7,39.9c-0.2,1.6-0.5,3.2-1,4.7
    c-0.4,1.5-0.9,3-1.5,4.4c-0.5,1.3-1.2,2.5-1.9,3.7c-0.6,1-1.4,1.8-2.3,2.5c-0.7,0.6-1.6,0.9-2.6,0.9c-2.9,0-4.3-1.3-4.3-3.9
    c0-0.7,0.1-1.3,0.2-2l4.5-21.6c0.3-0.3,0.6-0.6,1-0.8c0.4-0.2,0.9-0.4,1.3-0.5c0.5-0.1,0.9-0.2,1.4-0.3c0.5,0,0.8,0,1.1,0
    c0.7,0,1.4,0.2,1.9,0.7c0.6,0.5,1,1.1,1.4,1.8c0.4,0.8,0.6,1.7,0.8,2.6c0.2,1,0.3,2,0.3,3C115,36.8,114.9,38.3,114.7,39.9z"></path>
    <path class="cover-icons" d="M146.4,48.5c-0.3,1-0.7,2-1.1,3c-0.4,0.9-0.9,1.7-1.4,2.4c-0.5,0.6-1.1,1.2-1.8,1.6c-0.7,0.4-1.4,0.6-2.2,0.6
    c-0.4,0-0.8-0.1-1.2-0.3c-0.3-0.2-0.6-0.5-0.7-0.8c-0.2-0.4-0.3-0.8-0.4-1.2c-0.1-0.5-0.1-0.9-0.1-1.4c0-0.7,0.1-1.5,0.2-2.2
    l5.9-28.8h-11.8l-5.5,27.2c-0.2,1.1-0.4,2.1-0.5,3c-0.1,0.8-0.2,1.7-0.2,2.5c0,1.6,0.2,3.1,0.7,4.6c0.4,1.2,1,2.3,1.9,3.2
    c0.8,0.8,1.7,1.4,2.8,1.8c1.1,0.4,2.3,0.6,3.4,0.6c0.8,0,1.5-0.1,2.3-0.2c0.8-0.1,1.7-0.4,2.5-0.7c0.9-0.4,1.8-0.9,2.6-1.5
    c1-0.7,1.9-1.6,2.6-2.5l-0.8,3.7c-2.1,0.7-3.9,1.3-5.6,1.8c-1.6,0.6-3.1,1.4-4.5,2.4c-1.3,0.9-2.3,2.1-3.1,3.4
    c-0.8,1.5-1.2,3.3-1.1,5c0,1.3,0.3,2.6,0.8,3.8c0.5,1.1,1.3,2.1,2.2,2.9c0.9,0.8,2,1.4,3.1,1.9c1.1,0.4,2.4,0.7,3.6,0.7
    c1.4,0,2.9-0.2,4.3-0.5c1.6-0.4,3-1.1,4.3-2.1c1.5-1.2,2.8-2.7,3.8-4.4c1.3-2.3,2.1-4.8,2.6-7.4l10-49.3h-11.9L146.4,48.5z
      M141.9,70.8c-0.2,1.1-0.5,2.2-1,3.2c-0.3,0.7-0.7,1.4-1.2,2c-0.4,0.5-0.8,0.8-1.4,1.1c-0.4,0.2-0.8,0.3-1.3,0.3
    c-0.4,0-0.9-0.1-1.3-0.3c-0.4-0.2-0.7-0.4-1-0.7c-0.3-0.2-0.5-0.6-0.7-0.9c-0.2-0.3-0.2-0.6-0.2-1c0-1.1,0.2-2.1,0.7-3
    c0.5-0.9,1.1-1.7,1.9-2.4c0.9-0.8,1.9-1.4,2.9-1.9c1.2-0.6,2.4-1.1,3.6-1.5L141.9,70.8z"></path>
    <path class="cover-icons" d="M230,11.1c2.7,0.2,5.4-0.7,7.4-2.6c1.7-1.7,2.6-4.5,2.8-8.2c-1.3,0.5-2.7,1-4.2,1.2c-1.8,0.4-3.6,0.6-5.3,0.5
    c-1.4,0-2.6,0-3.7-0.1c-1-0.1-2.1-0.2-3.1-0.4s-2-0.3-3-0.5s-2-0.3-3.1-0.5c-1.1-0.1-2.3-0.3-3.6-0.4c-1.3-0.1-2.8-0.1-4.4-0.1
    c-4.4-0.1-8.7,0.5-12.9,1.9c-3.2,1-6.1,2.7-8.6,4.9c-2.1,1.9-3.8,4.4-4.9,7.1c-1,2.6-1.5,5.4-1.5,8.2c0,1.3,0.2,2.6,0.6,3.9
    c0.3,1,0.9,1.9,1.7,2.5c0.8,0.7,1.7,1.2,2.7,1.4c1.2,0.3,2.5,0.5,3.8,0.4c0-0.2-0.1-0.4-0.2-0.6c-0.2-0.3-0.3-0.6-0.4-0.9
    c-0.2-0.5-0.3-1.1-0.4-1.6c-0.1-0.9-0.2-1.8-0.2-2.6c-0.1-2.9,0.3-5.7,1.2-8.5c0.7-2,1.8-3.8,3.3-5.3c1.4-1.3,3.1-2.2,4.9-2.7
    c2-0.5,4-0.8,6.1-0.8h1l-11.6,56.3l11.7,0l11.3-54.6c2.3,0.5,4.5,0.9,6.5,1.3C225.9,10.9,228,11.1,230,11.1z"></path>
    <path class="cover-icons" d="M337.4,21.7c-0.8-1.5-2.4-2.4-4-2.3c-1.4-0.1-2.8,0.3-3.9,1.3c-0.8,0.9-1.3,2.1-1.2,3.3c0,0.5,0.1,1,0.2,1.5
    c0.1,0.5,0.3,1,0.6,1.4c0.2,0.4,0.6,0.8,0.9,1c0.4,0.3,0.8,0.4,1.3,0.4h0.6c0.3,0,0.5-0.1,0.8-0.1c0.3-0.1,0.5-0.2,0.7-0.3
    c0.2-0.1,0.3-0.2,0.4-0.4c0,1.8-0.2,3.6-0.5,5.3c-0.4,2.1-0.8,4.1-1.4,6.2c-0.6,2.1-1.3,4.2-2.2,6.2c-0.8,1.9-1.7,3.7-2.8,5.4
    c-0.9,1.5-2.1,2.8-3.4,3.8c-1.1,0.9-2.4,1.4-3.8,1.5c-0.8,0.1-1.6-0.2-2.1-0.8c-0.5-0.6-0.7-1.3-0.7-2c0-1,0.2-2.1,0.4-3.1
    l5.9-28.8h-11.8l-5.6,27c-0.3,1-0.7,2-1.1,3c-0.4,0.9-0.9,1.7-1.4,2.4c-0.5,0.6-1.1,1.2-1.8,1.6c-0.7,0.4-1.4,0.6-2.2,0.6
    c-0.4,0-0.8-0.1-1.2-0.3c-0.3-0.2-0.6-0.5-0.7-0.8c-0.2-0.4-0.3-0.8-0.4-1.2c-0.1-0.5-0.1-0.9-0.1-1.4c0-0.7,0.1-1.5,0.2-2.2
    l5.9-28.8h-11.8l-5.5,27.2c-0.1,0.5-0.2,0.9-0.2,1.4c-0.2,0.6-0.5,1.2-0.8,1.8c-0.5,0.9-1,1.7-1.7,2.4c-0.6,0.7-1.3,1.2-2.1,1.6
    c-0.7,0.4-1.5,0.6-2.3,0.6c-0.9,0.1-1.8-0.2-2.5-0.7c-0.6-0.7-0.9-1.6-0.8-2.5c0-0.4,0-0.9,0-1.3c0-0.5,0.1-0.9,0.3-1.4l5.9-28.8
    h-11.8L264,48.4l0,0c-0.3,1.1-0.6,2.1-1.1,3.1c-0.4,0.9-0.9,1.8-1.5,2.5c-0.5,0.7-1.2,1.3-1.9,1.7c-0.7,0.4-1.4,0.6-2.2,0.6
    c-2.2,0-3.4-1.2-3.4-3.7c0-0.4,0-0.9,0.1-1.3c0.1-0.5,0.1-0.9,0.3-1.4l5.9-28.8h-11.8l-0.9,4.5v-0.6c0-1.2-0.6-2.4-1.5-3.1
    c-1.5-1-3.3-1.4-5.1-1.2c-2.2,0-4.5,0.4-6.5,1.4c-2,0.9-3.7,2.2-5.3,3.7c-1.6,1.6-3,3.4-4.1,5.4c-1.2,2-2.1,4.2-2.9,6.4
    c-0.8,2.2-1.3,4.4-1.7,6.6c-0.4,2.1-0.5,4.1-0.6,6.2c-0.1,2.2,0.3,4.3,0.9,6.4c0.5,1.6,1.3,3,2.4,4.2c1,1,2.2,1.8,3.5,2.3
    c1.3,0.5,2.7,0.7,4.1,0.7c1.4,0,2.7-0.2,4-0.7c1.2-0.4,2.3-1,3.3-1.8c1-0.7,1.9-1.6,2.7-2.5c0.8-0.9,1.5-1.9,2.2-2.9
    c0.1,2.2,1,4.3,2.5,5.8c1.5,1.4,3.5,2.1,5.5,2c0.8,0,1.6-0.1,2.4-0.2c0.9-0.2,1.9-0.4,2.8-0.8c1-0.4,2-1,3-1.6
    c1.1-0.8,2.1-1.8,3-2.8c0.5-0.6,1-1.3,1.5-2c0.1,0.7,0.3,1.3,0.5,1.9c0.4,1.2,1,2.3,1.9,3.2c0.8,0.8,1.7,1.4,2.8,1.8
    c1.1,0.4,2.3,0.6,3.4,0.6c0.8,0,1.6-0.1,2.4-0.2c1-0.2,2-0.4,2.9-0.8c2.4-1,4.6-2.5,6.3-4.5c0.6-0.7,1.1-1.3,1.6-2
    c0.1,0.6,0.2,1.2,0.4,1.8c0.4,1.2,1,2.3,1.9,3.2c0.8,0.8,1.7,1.4,2.8,1.8c1.1,0.4,2.3,0.6,3.4,0.6c0.9,0,1.8-0.1,2.6-0.3
    c1-0.2,2-0.5,2.9-1c1.1-0.6,2.1-1.3,3.1-2.2c1.2-1.1,2.2-2.3,3.1-3.7c0.3,2.2,1.5,4.1,3.3,5.4c2,1.3,4.2,1.9,6.5,1.8
    c2.6,0,5.2-0.6,7.5-1.8c2.2-1.2,4.3-2.8,5.9-4.8c1.8-2.1,3.3-4.4,4.5-6.9c1.2-2.6,2.3-5.3,3.1-8c0.8-2.7,1.4-5.5,1.8-8.2
    c0.4-2.5,0.5-5,0.6-7.5c0-0.9-0.1-1.8-0.3-2.7C338.1,23.3,337.8,22.5,337.4,21.7z M242.8,48.6c-0.2,1.1-0.6,2.2-1.2,3.2
    c-0.5,0.9-1,1.6-1.7,2.3c-0.6,0.6-1.2,1.1-2,1.4c-0.6,0.3-1.3,0.5-1.9,0.5c-0.4,0-0.9,0-1.3-0.1c-0.5-0.1-1-0.4-1.3-0.8
    c-0.5-0.6-0.9-1.2-1.1-2c-0.3-1.2-0.5-2.5-0.4-3.8c0-1.5,0.1-3,0.4-4.5c0.5-3.5,1.4-6.9,2.8-10.1c0.6-1.5,1.4-3,2.3-4.4
    c0.8-1.2,1.7-2.2,2.8-3.1c0.9-0.7,2.1-1.2,3.3-1.2c0.6,0,1.1,0.1,1.6,0.4c0.4,0.2,0.7,0.5,1,0.9c0.2,0.3,0.4,0.7,0.5,1.1
    c0.1,0.3,0.1,0.6,0.2,0.9L242.8,48.6z"></path>
    <path class="cover-icons" d="M417.3,56.1c-1,0.1-1.9-0.2-2.6-1c-0.5-0.8-0.7-1.7-0.7-2.6c0-0.9,0.1-1.9,0.3-2.8c0.2-1.1,0.4-2.2,0.7-3.5
    s0.6-2.6,0.9-3.9s0.6-2.7,0.9-4.1c0.3-1.4,0.5-2.7,0.7-4c0.2-1.2,0.3-2.4,0.3-3.7c0-1.5-0.2-3-0.7-4.4c-0.8-2.3-2.6-4-4.8-4.7
    c-1.2-0.4-2.4-0.6-3.6-0.5c-0.7,0-1.4,0.1-2,0.2c-0.8,0.1-1.6,0.3-2.3,0.7c-0.9,0.4-1.8,0.8-2.5,1.4c-1,0.7-1.8,1.5-2.6,2.5
    l0.9-4.4h-11.8l-5.5,27.1l0,0c-0.3,1.1-0.6,2.1-1.1,3.1c-0.4,0.9-0.9,1.8-1.5,2.5c-0.5,0.7-1.2,1.3-1.9,1.7
    c-0.7,0.4-1.4,0.6-2.2,0.6c-2.2,0-3.4-1.2-3.4-3.7c0-0.4,0-0.9,0.1-1.3c0.1-0.5,0.1-0.9,0.3-1.4l5.9-28.8h-11.8l-0.9,4.5v-0.6
    c0-1.2-0.6-2.4-1.5-3.1c-1.5-1-3.3-1.4-5.1-1.2c-2.2,0-4.5,0.4-6.5,1.4c-2,0.9-3.7,2.2-5.3,3.7c-1.6,1.6-3,3.4-4.1,5.4
    c-1.2,2-2.1,4.2-2.9,6.4c-0.8,2.2-1.3,4.4-1.7,6.6c-0.4,2.1-0.5,4.1-0.6,6.2c-0.1,2.2,0.3,4.3,0.9,6.4c0.5,1.6,1.3,3,2.4,4.2
    c1,1,2.2,1.8,3.5,2.3c1.3,0.5,2.7,0.7,4.1,0.7c1.4,0,2.7-0.2,4-0.7c1.2-0.4,2.3-1,3.3-1.8c1-0.7,1.9-1.6,2.7-2.5
    c0.8-0.9,1.5-1.9,2.2-2.9c0.1,2.2,1,4.3,2.5,5.8c1.5,1.4,3.5,2.1,5.5,2c0.8,0,1.6-0.1,2.4-0.2c0.9-0.2,1.9-0.4,2.8-0.8
    c1-0.4,2-1,3-1.6c1-0.7,1.9-1.6,2.7-2.5l-1,4.7l11.9-0.1l5.5-27.2c0.3-1,0.7-2.1,1.1-3.1c0.4-0.9,0.9-1.7,1.4-2.5
    c0.5-0.6,1.1-1.2,1.8-1.6c0.6-0.4,1.3-0.6,2.1-0.6c2,0,3,1.5,3,4.4c0,1.6-0.2,3.2-0.6,4.8c-0.4,1.9-0.8,3.8-1.3,5.8
    c-0.5,2-0.9,4-1.3,5.9c-0.4,1.7-0.6,3.3-0.6,5c0,1.2,0.1,2.4,0.4,3.6c0.2,1.1,0.7,2.2,1.4,3.1c0.7,0.9,1.5,1.7,2.6,2.2
    c1.2,0.6,2.6,0.9,4,0.8c1,0,2.1-0.2,3.1-0.5c1-0.3,1.9-0.9,2.7-1.6c0.8-0.8,1.5-1.7,2-2.7c0.6-1.2,1-2.6,1.1-4
    C419.2,56,418.2,56.2,417.3,56.1z M361.8,48.6c-0.2,1.1-0.6,2.2-1.2,3.2c-0.5,0.9-1,1.6-1.7,2.3c-0.6,0.6-1.2,1.1-2,1.4
    c-0.6,0.3-1.3,0.5-1.9,0.5c-0.4,0-0.9,0-1.3-0.1c-0.5-0.1-1-0.4-1.3-0.8c-0.5-0.6-0.9-1.2-1.1-2c-0.3-1.2-0.5-2.5-0.4-3.8
    c0-1.5,0.1-3,0.4-4.5c0.5-3.5,1.4-6.9,2.8-10.2c0.6-1.5,1.4-3,2.3-4.4c0.8-1.2,1.7-2.2,2.8-3.1c0.9-0.7,2.1-1.2,3.3-1.2
    c0.6,0,1.1,0.1,1.6,0.4c0.4,0.2,0.7,0.5,1,0.9c0.2,0.3,0.4,0.7,0.5,1.1c0.1,0.3,0.1,0.6,0.2,0.9L361.8,48.6z"></path>
  </g>
  <path class="cover-icons" d="M275.3,17.4C275.3,17.5,275.3,17.5,275.3,17.4l-8-10c0-0.1,0-0.1,0-0.2l4.4-4.9c0,0,0.1,0,0.1,0h11
    c0,0,0.1,0,0.1,0l3.1,4.9c0,0.1,0,0.1,0,0.2l-10.7,10H275.3z"></path>
  <polygon class="cover-icons" id="star" points="292.3,0 293,3 295.7,4.1 292.7,5.3 291.2,8.2 290.5,5.3 287.8,4.1 290.8,3 "></polygon>
</svg>