<svg version="1.1" id="cover-platform_l" xmlns="http://www.w3.org/2000/svg" xmlns:xlink="http://www.w3.org/1999/xlink" x="0px" y="0px" viewBox="0 0 415 120" style="enable-background:new 0 0 415 120;" xml:space="preserve">
	<style type="text/css">
		.fading-1 {
			-webkit-animation: fading 3s ease-in-out infinite;
			animation: fading 3s ease-in-out infinite;
		}
		.fading-2 {
			-webkit-animation: fading 4s ease-in-out 1s infinite;
			animation: fading 4s ease-in-out 1s infinite;
		}
		.fading-3 {
			-webkit-animation: fading 5s ease-in-out 0.5s infinite;
			animation: fading 5s ease-in-out 0.5s infinite;
		}
		@-webkit-keyframes fading {
			0%, 100%   { opacity: 1; }
			50% { opacity: 0; }
		}
		@keyframes fading {
			0%, 100%   { opacity: 1; }
			50% { opacity: 0; }
		}

		#buddha_main {
			-webkit-animation: floating 5s ease-in-out infinite both;
			animation: floating 5s ease-in-out infinite both;
		}
		@-webkit-keyframes floating {
			0%, 100% { -webkit-transform: translate(0, 0); }
			50% { -webkit-transform: translate(0, -5px); }
		}
		@keyframes floating {
			0%, 100% { transform: translate(0, 0); }
			50% { transform: translate(0, -5px); }
		}

		@-moz-document url-prefix() {
			#buddha_main {
				animation: none !important;
			}
		}
	</style>
	<g>
			<polygon class="cover-icons" points="415,120 0,120 0,118 413,118 413,110 0,110 0,108 415,108 	"></polygon>
	</g>
	<g id="ntt">
			<ellipse class="cover-icons_yellow fading-1" cx="97" cy="73.4" rx="1.4" ry="1.4"></ellipse>
			<ellipse class="cover-icons_yellow fading-2" cx="104.1" cy="93.7" rx="1.4" ry="1.4"></ellipse>
			<ellipse class="cover-icons_yellow fading-3" cx="110.4" cy="59.4" rx="1.4" ry="1.4"></ellipse>
			<ellipse class="cover-icons_yellow fading-1" cx="115.3" cy="81.8" rx="1.4" ry="1.4"></ellipse>
			<ellipse class="cover-icons_yellow fading-2" cx="118.2" cy="104.2" rx="1.4" ry="1.4"></ellipse>
			<ellipse class="cover-icons_yellow fading-3" cx="123.1" cy="51.7" rx="1.4" ry="1.4"></ellipse>
			<ellipse class="cover-icons_yellow fading-1" cx="126.6" cy="90.9" rx="1.4" ry="1.4"></ellipse>
			<ellipse class="cover-icons_yellow fading-2" cx="130.1" cy="74.8" rx="1.4" ry="1.4"></ellipse>
			<ellipse class="cover-icons_yellow fading-3" cx="208.3" cy="50.3" rx="1.4" ry="1.4"></ellipse>
			<ellipse class="cover-icons_yellow fading-1" cx="176.6" cy="75.5" rx="1.4" ry="1.4"></ellipse>
			<ellipse class="cover-icons_yellow fading-2" cx="182.9" cy="91.6" rx="1.4" ry="1.4"></ellipse>
			<ellipse class="cover-icons_yellow fading-3" cx="183.6" cy="53.1" rx="1.4" ry="1.4"></ellipse>
			<ellipse class="cover-icons_yellow fading-1" cx="189.9" cy="103.5" rx="1.4" ry="1.4"></ellipse>
			<ellipse class="cover-icons_yellow fading-2" cx="197.7" cy="67.8" rx="1.4" ry="1.4"></ellipse>
			<ellipse class="cover-icons_yellow fading-3" cx="199.8" cy="95.8" rx="1.4" ry="1.4"></ellipse>
			<ellipse class="cover-icons_yellow fading-1" cx="207.6" cy="83.2" rx="1.4" ry="1.4"></ellipse>
			<ellipse class="cover-icons_yellow fading-2" cx="250.7" cy="81.4" rx="1.4" ry="1.4"></ellipse>
			<ellipse class="cover-icons_yellow fading-3" cx="255.6" cy="94" rx="1.4" ry="1.4"></ellipse>
			<ellipse class="cover-icons_yellow fading-1" cx="257" cy="71.6" rx="1.4" ry="1.4"></ellipse>
			<ellipse class="cover-icons_yellow fading-2" cx="262.6" cy="103.8" rx="1.4" ry="1.4"></ellipse>
			<ellipse class="cover-icons_yellow fading-3" cx="264.7" cy="81.4" rx="1.4" ry="1.4"></ellipse>
			<ellipse class="cover-icons_yellow fading-1" cx="268.2" cy="66" rx="1.4" ry="1.4"></ellipse>
			<ellipse class="cover-icons_yellow fading-2" cx="271.1" cy="98.2" rx="1.4" ry="1.4"></ellipse>
			<ellipse class="cover-icons_yellow fading-3" cx="272.5" cy="88.4" rx="1.4" ry="1.4"></ellipse>
			<ellipse class="cover-icons_yellow fading-1" cx="36.5" cy="86.7" rx="1.4" ry="1.4"></ellipse>
			<ellipse class="cover-icons_yellow fading-2" cx="39.3" cy="102.1" rx="1.4" ry="1.4"></ellipse>
			<ellipse class="cover-icons_yellow fading-3" cx="42.1" cy="72" rx="1.4" ry="1.4"></ellipse>
			<ellipse class="cover-icons_yellow fading-1" cx="49.9" cy="93.7" rx="1.4" ry="1.4"></ellipse>
			<ellipse class="cover-icons_yellow fading-2" cx="56.2" cy="79.7" rx="1.4" ry="1.4"></ellipse>
			<path class="cover-icons" d="M256.1,58.6c-1-2.5-4.2-3.4-7-4.2c-1.2-0.3-2.4-0.7-3.6-1.2c-2.9-1.4-4.2-3.7-4.2-7.2v-1H63.5v1c0,3.5-1.2,5.8-3.8,7.2
	c-1,0.5-2.1,0.9-3.2,1.2c-3,1-6.8,2.2-6.8,6.1c0,0.5,0.1,1,0.3,1.5H30v48h250V58.6H256.1z M239.3,82.5c0,1.7,0.2,3.4,0.6,5
	c-2-0.5-3.6-3.7-3.6-7.4c0-4,1.9-7.5,4.1-7.5c0.4,0,0.8,0.1,1.2,0.3C240.1,75.9,239.3,79.2,239.3,82.5z M242.1,72.1
	c-0.5-0.3-1.1-0.5-1.7-0.5c-2.9,0-5.1,3.7-5.1,8.4c0,4.6,2.1,8.2,4.8,8.4c0.5,1.6,1.1,3.1,2,4.5c-0.6,0.1-1.1,0.2-1.7,0.2
	c-5.6,0-9.8-5.6-9.8-13.1s4.2-13.1,9.7-13.1c1.6,0,3.2,0.5,4.6,1.5C243.8,69.5,242.9,70.8,242.1,72.1z M245.8,67.8
	c-1.6-1.2-3.5-1.8-5.4-1.8c-6.1,0-10.8,6-10.8,14s4.6,14,10.8,14c0.8,0,1.5-0.1,2.3-0.3c0.9,1.3,1.9,2.5,3.1,3.5l0.2,0.2
	c-1.8,0.8-3.7,1.2-5.6,1.2c-8.8,0-15.4-8-15.4-18.7s6.6-18.7,15.4-18.7c3.5,0,6.8,1.3,9.4,3.7C248.4,65.8,247,66.8,245.8,67.8z
		M206.3,103.4c1.8-1,3.7-1.7,5.6-2.3v6.9h-6.6C205.3,106.5,205.6,104.9,206.3,103.4z M212.8,100.9c3.2-0.8,6.5-1.4,9.8-1.6v8.8
	h-9.8V100.9z M223.6,99.2c1.6-0.1,3.3-0.2,5-0.2s3.2,0.1,4.8,0.2v8.9h-9.8V99.2z M234.4,99.2c3.3,0.2,6.6,0.8,9.8,1.6v7.2h-9.8
	V99.2z M242.9,99.5c1.4-0.2,2.7-0.6,4-1.2c1.3,1.1,2.5,2.4,3.6,3.8C248,100.9,245.5,100.1,242.9,99.5L242.9,99.5z M251.1,64.3
	l-0.5,0.3c-2.8-2.6-6.4-4.1-10.2-4.1c-9.3,0-16.4,8.4-16.4,19.6c0,8.4,4,15.3,9.9,18.2c-1.7-0.1-3.5-0.2-5.4-0.2
	c-0.9,0-1.7,0-2.6,0c-4.3-4.5-6.6-10.9-6.6-18c0-13.8,9-24.3,21-24.3c5.2,0,10.2,2.1,13.9,5.8C253.9,62.7,252.9,63.3,251.1,64.3
	L251.1,64.3z M239.4,46.9c0.1,3.4,2.2,6.5,5.3,7.9c1.3,0.6,2.6,1,3.9,1.4c2.8,0.8,5.4,1.6,5.8,3.5c0,0.2,0.1,0.4,0.1,0.6l0,0
	c-3.8-3.5-8.8-5.5-14-5.5c-12.6,0-22,10.9-22,25.2c-0.2,6.6,2.1,13,6.4,18.1c-7,0.3-13.2,1.7-17.6,3.7c1.2-1.6,2.6-3.2,4.1-4.5
	c3.9-3.9,6.1-9.3,5.9-14.8c0.1-4.8-1.5-9.5-4.5-13.2c4.4-2.5,7.1-6.5,7.1-11.1c0-3-1.2-5.9-3.3-8.1c0.3-1,0.5-2,0.6-3.1L239.4,46.9
	z M203.4,60.3c0-2.2,2-3,5.3-4.1l0.5-0.2c0.6,0.5,1,1.3,1.1,2.1c0,2-2.9,3.8-6.5,4.1C203.5,61.6,203.4,61,203.4,60.3L203.4,60.3z
		M211.3,58.2c0-0.9-0.4-1.8-1-2.5c0.7-0.2,1.4-0.5,2-0.9c0.3-0.2,0.7-0.4,1-0.6c0.8,1.1,1.3,2.5,1.3,3.9c0,3.2-2.3,6-6.2,7.4
	c-0.7-0.5-1.4-0.9-1.9-1.2c-0.6-0.4-1.2-0.8-1.8-1.2C208.5,62.6,211.3,60.6,211.3,58.2L211.3,58.2z M215.5,58.2
	c0-1.6-0.5-3.2-1.5-4.5c0.8-0.7,1.5-1.6,2-2.6c1.7,2,2.7,4.5,2.7,7.1c0,4.3-2.5,8.1-6.8,10.4l-0.2-0.2c-0.8-0.8-1.6-1.5-2.5-2.1
	C213.2,64.6,215.5,61.6,215.5,58.2L215.5,58.2z M132.2,57h4.2v9.5h-0.8c-1.2-0.8-2.4-1.5-3.6-2.2c-2.3-1.3-3.3-1.9-3.3-4
	C128.7,58.6,130,57.8,132.2,57z M135.3,56l1.1-0.3V56H135.3z M158,57v9.5h-9.8V57H158z M148.2,56v-9.1h9.8V56H148.2z M159,57h9.8
	v9.5H159V57z M166.5,87.6H159V78h7.4c-0.3,1.5-0.4,3-0.4,4.5C165.9,84.2,166.1,85.9,166.5,87.6L166.5,87.6z M158,87.6h-9.8V78h9.8
	V87.6z M158,88.6V98h-9.8v-9.5L158,88.6z M143.3,78h3.9v9.5h-4c0.4-1.7,0.6-3.3,0.6-5C143.8,81,143.7,79.5,143.3,78z M148.2,77
	v-9.5h9.8V77H148.2z M147.2,66.5h-9.8V57h9.8V66.5z M137.4,67.5h9.8V77h-4.1c-0.8-3.3-2.6-6.4-5.2-8.7l-0.5-0.4
	C137.4,67.9,137.4,67.5,137.4,67.5z M143,88.5h4.2V98h-9.8v-0.8C140.1,94.9,142,91.8,143,88.5L143,88.5z M135.5,99h1v9.1h-5.7
	C130.8,104.8,131.6,102.7,135.5,99z M137.5,99h9.8v9.1h-9.8V99z M148.2,99h9.8v9.1h-9.8V99z M159,99h9.8v9.1H159V99z M169.8,99h3.8
	c3.5,3.7,4.2,5.8,4.3,9.1h-8.1V99z M169.8,98v-3.2c0.6,0.9,1.3,1.7,2.1,2.5l0.7,0.7H169.8z M168.8,98H159v-9.5h7.7
	c0.4,1.7,1.1,3.3,2,4.8L168.8,98z M166.6,77H159v-9.5h9.8v4.1C167.8,73.3,167.1,75.1,166.6,77z M169.8,67.5h2.5
	c-0.3,0.3-0.6,0.6-1,0.9c-0.6,0.5-1.1,1.1-1.5,1.8V67.5z M173.4,66.5h-3.7V57h6.8c2,0.8,3.2,1.6,3.2,3.3c0,2.1-0.9,2.7-3,4
	C175.6,65,174.5,65.7,173.4,66.5L173.4,66.5z M169.8,56v-1.8c0.4,0.3,0.7,0.5,1.1,0.7c0.9,0.5,1.9,0.8,2.9,1.1H169.8z M168.8,56
	H159v-9.1h7c0.1,2.4,1,4.7,2.7,6.4L168.8,56z M147.2,46.9V56h-9.8v-0.7c0.3-0.1,0.7-0.3,1-0.4c3.1-1.4,5.2-4.5,5.3-7.9L147.2,46.9z
		M61,98h-1.4l0.8-0.7c0.2-0.2,0.5-0.4,0.7-0.7L61,98z M62,95.6c1.8-2.1,3.2-4.5,4-7.2h5.8V98H62V95.6z M61,68.3
	c-0.3-0.3-0.7-0.6-1-0.8h1V68.3L61,68.3z M62,67.5h9.8V77h-5.6c-0.7-2.9-2.2-5.5-4.2-7.6V67.5z M82.6,57v9.5h-9.8V57H82.6z
		M72.8,56v-9.1h9.8V56H72.8z M83.6,57h9.8v9.5h-9.8V57z M88.2,87.6h-4.7V78h4.6c-0.3,1.5-0.5,3-0.5,4.5
	C87.6,84.2,87.8,85.9,88.2,87.6L88.2,87.6z M82.6,87.6h-9.8V78h9.8V87.6z M82.6,88.6V98h-9.8v-9.5L82.6,88.6z M66.4,78h5.4v9.5
	h-5.5c0.4-1.7,0.6-3.3,0.6-5C66.9,81,66.7,79.5,66.4,78z M72.8,77v-9.5h9.8V77H72.8z M71.8,66.5H62V57h9.8V66.5z M71.8,99v9H62v-9
	H71.8z M72.8,99h9.8v9h-9.8V99z M83.6,99h9.8v9h-9.8V99z M94.3,99H96c3.9,3.7,4.6,5.8,4.7,9.1h-6.4L94.3,99z M94.3,98v-0.5l0.6,0.5
	H94.3z M93.3,98h-9.8v-9.5h4.9c0.9,3.1,2.6,5.8,4.9,8.1V98z M88.3,77h-4.8v-9.5h9.8v1C90.9,70.8,89.2,73.7,88.3,77L88.3,77z
		M94.3,67.4h0.2l-0.2,0.2V67.4z M95.9,66.4h-1.5V57h4.9c2.2,0.8,3.6,1.7,3.6,3.3c0,2.1-1,2.6-3.3,4C98.2,65,97,65.7,95.9,66.4
	L95.9,66.4z M94.3,56v-0.6c0.6,0.2,1.2,0.4,1.8,0.6H94.3z M93.3,56h-9.8v-9.1h4.2c0.1,3.4,2.1,6.5,5.2,7.9l0.3,0.1L93.3,56z
		M65.5,46.9h6.4V56H62v-2.1C64.1,52.2,65.4,49.7,65.5,46.9z M60.6,54.9c0.2-0.1,0.3-0.2,0.4-0.3V56h-3.2
	C58.8,55.7,59.7,55.3,60.6,54.9z M55.1,57h6v9.5h-2.4c-1.1-0.8-2.3-1.5-3.5-2.2c-1-0.5-2-1.2-2.8-2c-0.4-0.5-0.7-1.2-0.7-1.9
	C51.7,58.7,52.9,57.8,55.1,57z M32,108.1V63.9h19.2c0.9,0.8,1.9,1.6,3,2.1c2,1.1,3.8,2.3,5.5,3.8c3.2,2.8,5.2,7.7,5.2,12.7
	c0.1,5.1-2.1,10-6,13.4c-5.8,5.1-7.1,7.7-7.2,12.2C51.7,108.1,32,108.1,32,108.1z M58.5,99H61v9.1h-7.2
	C53.9,104.8,54.6,102.7,58.5,99z M102.7,108.1c-0.1-4.5-1.4-7.1-7.2-12.2c-3.8-3.4-6-8.3-5.9-13.4c0-5,2-9.9,5.2-12.7
	c1.7-1.5,3.6-2.7,5.6-3.8c2.5-1.4,4.3-2.4,4.3-5.7c0-3.8-3.9-4.9-7.3-5.9c-1.2-0.3-2.4-0.7-3.6-1.2c-2.5-1.1-4.1-3.5-4.2-6.2h52
	c-0.1,2.7-1.7,5.1-4.2,6.2c-1.1,0.5-2.3,0.9-3.5,1.2c-3.4,1-7.3,2.1-7.3,5.9c0,3.2,1.8,4.2,4.3,5.7c2,1.1,3.9,2.3,5.6,3.8
	c3.2,2.8,5.2,7.7,5.2,12.7c0.1,5.1-2,10-5.9,13.4c-5.8,5.1-7.1,7.7-7.2,12.2L102.7,108.1z M179.8,108.1c-0.1-4.1-1-6.8-6.6-12.1
	c-3.6-3.6-5.5-8.4-5.3-13.5c0-5.1,1.8-9.9,4.8-12.7c1.5-1.5,3.3-2.7,5.1-3.8c2.3-1.4,3.9-2.4,3.9-5.6c0-3.8-3.7-5-6.7-5.9
	c-1.1-0.3-2.2-0.7-3.2-1.2c-2.3-1.2-3.8-3.6-3.8-6.2h47.1c0,2.6-1.5,5-3.8,6.2c-1,0.5-2.1,0.9-3.2,1.2c-3,1-6.7,2.1-6.7,5.9
	c0,3.2,1.6,4.2,3.9,5.6c1.8,1.1,3.5,2.4,5.1,3.8c2.9,2.8,4.8,7.7,4.8,12.7c0.1,5-1.8,9.9-5.3,13.5c-5.5,5.3-6.5,8-6.6,12.1H179.8z
		M245.1,108.1v-7c2.2,0.6,4.3,1.5,6.3,2.6c0.6,1.4,1,2.9,0.9,4.4H245.1z M278,108.1h-23.6c-0.1-4.5-1.4-7.1-7.2-12.2
	c-3.8-3.4-6-8.3-5.9-13.4c0-5,2-9.9,5.2-12.7c1.7-1.5,3.6-2.7,5.6-3.8c2.4-1.4,4.2-2.4,4.3-5.4H278V108.1z"></path>
	</g>
	<path class="cover-icons" id="buddha_main" d="M319.8,92h72.6h0.1c4.2-1.1,8-5.4,7.2-12.1c-0.2-2.3-1.4-4.4-3.3-5.8c-4.4-3.2-11.3-2.2-12-2.1
	c0.2-0.7,0.3-1.3,0.4-2c0.3-3.8,1.4-23.1-5-28.6c-2-1.8-5.1-2.3-8-2.8c-2.6-0.5-5-0.9-6.6-2.1c-0.7-0.5-1.2-1.2-1.4-2
	c0.4-0.3,0.8-0.5,1.2-0.8v0.2c0.5,2,2,3.2,3.5,2.8c0.8-0.2,1.4-0.9,1.6-1.7c0.2-0.8,0.2-1.6,0-2.4c-0.1-0.5-0.3-0.9-0.6-1.3
	c0-0.1-0.1-0.1-0.1-0.2c-0.1-0.5,0-1.1,0.3-1.6c0.7-1.4,1.2-3,1.2-4.6c0.2-1.7,0.5-5.5-2.1-6.2c0.1-0.6,0.2-1.1,0.2-1.7
	c0-5.7-5.5-12-12.8-12c-7.3,0-12.8,6.3-12.8,12c0,0.5,0.1,0.9,0.2,1.4c-0.3,0.1-0.5,0.3-0.7,0.4c-1.6,1.4-1.5,4.7-1.4,6.1
	c0.1,1.6,0.5,3.2,1.2,4.6c0.3,0.5,0.4,1,0.3,1.6c0,0.1,0,0.1,0,0.2c-0.3,0.4-0.5,0.9-0.6,1.4c-0.2,0.8-0.2,1.6,0,2.4
	c0.2,0.8,0.8,1.4,1.6,1.7c1.4,0.4,2.9-0.8,3.5-2.8v-0.2c0.4,0.3,0.9,0.6,1.3,0.9c-0.2,0.8-0.7,1.5-1.4,1.9c-1.6,1.2-4,1.6-6.6,2.1
	c-2.9,0.5-6,1-8,2.8c-6.4,5.5-5.3,24.8-5,28.6c0,0.7,0.2,1.3,0.4,2l0,0c-0.9-0.2-7.9-1.2-12.3,2c-1.9,1.4-3.1,3.5-3.3,5.8
	C311.7,86.7,315.6,90.9,319.8,92z M395,76.7c0,5.3-6.3,9.4-14.6,9.4c-3.2,0-6.3-0.6-9.2-2c0.9-0.7,1.7-1.6,2.4-2.5
	c2.2,0.8,4.5,1.2,6.8,1.2c6.1,0,10.8-2.5,11.2-6c0.2-0.9,0-1.9-0.5-2.7c1.4,0.2,2.6,0.7,3.8,1.4C395,75.9,395,76.3,395,76.7z
	 M317.3,75.5c1.1-0.7,2.4-1.2,3.8-1.4c-0.5,0.8-0.7,1.8-0.5,2.7c0.4,3.5,5.1,6,11.2,6c2.3,0,4.6-0.4,6.8-1.2
	c0.7,0.9,1.5,1.8,2.4,2.5c-2.9,1.4-6,2-9.2,2c-8.3,0-14.6-4-14.6-9.4C317.2,76.3,317.2,75.9,317.3,75.5z M337.1,74.7h0.6l1,0.1
	l1.7,0.1c0.4,5.6,7,9.8,15.6,9.8c8.6,0,15.1-4.2,15.6-9.8l3.4-0.2c-0.3,7.6-8.3,13.3-19,13.3C345.3,88,337.4,82.3,337.1,74.7z
	 M364.3,68.5c-0.9-0.5-1.8-0.9-2.8-1.1c-1.2-0.2-2.4-0.2-3.6,0c-1.4-0.6-2.9-0.9-4.3-0.8c-1.1,0-2.1,0.1-3.1,0.3
	c-1.2,0.2-2.3,0.7-3.4,1.4h-1c-0.1-0.9-0.3-2.2-0.3-3.8c6.9,1.9,14.1,1.9,21,0c-0.1,1.7-0.1,3.1-0.2,3.9
	C365.6,68.5,364.9,68.5,364.3,68.5z M342.3,75l2,0.1h0.7c0.7,3,5.3,5.3,11.1,5.3s10.4-2.3,11.1-5.3l3.4-0.1c-0.5,5-6.6,8.7-14.6,8.7
	S341.9,80,341.4,75H342.3z M349.1,75.2h2.2h1.2h3.6h0.1h3.6h0.3l3.4-0.1h0.3l2.4-0.1c-0.8,2.4-5.1,4.3-10.1,4.3s-9.3-1.9-10.1-4.2
	h1.6L349.1,75.2z M367.2,73.2L367.2,73.2l-3.3,0.1h-0.3l-3.3,0.1h-2.5c0.7-0.5,1.3-1.2,1.7-2c0.6-1,0.4-2.3-0.4-3.1
	c0.7,0,1.5,0,2.2,0.1c1.9,0.4,3.6,1.5,4.7,3.1c0.5,0.6,1,1.2,1.6,1.7L367.2,73.2z M366.6,63.6c-6.9,2-14.2,2-21,0
	c0-0.9-0.1-1.9-0.1-2.9c3.4,1.2,7,1.9,10.6,1.8c3.6,0.1,7.2-0.5,10.6-1.8C366.7,61.7,366.6,62.7,366.6,63.6L366.6,63.6z M350.6,67.9
	c1-0.2,1.9-0.3,2.9-0.3c2.4,0,4.3,0.6,4.9,1.5c0.3,0.6,0.3,1.2,0,1.8c-0.6,1.1-1.6,2-2.8,2.4h-3.1h-1.2h-2.2h-1.4l-1.9-0.1h-1.4
	h-0.6c0.7-0.6,1.3-1.3,1.8-2C346.7,69.6,348.5,68.3,350.6,67.9z M389.4,73.8c1.1,0.5,1.6,1.7,1.3,2.9c-0.3,2.9-4.7,5.2-10.2,5.2
	c-2.1,0-4.2-0.3-6.2-1.1c1.2-1.8,1.8-3.9,1.9-6.1c1.6-0.1,3.1-0.2,4.6-0.3h0.4c0.3,0,0.7-0.1,1-0.1l2.5-0.2
	C386.2,73.8,387.8,73.7,389.4,73.8L389.4,73.8z M378.4,42.9c4.7,4,4.9,18.9,4.3,27c-0.1,1.7-0.4,2.2-1,2.4
	c-4.3,0.4-8.5,0.7-12.8,0.8c-0.8-0.7-1.6-1.4-2.2-2.3c-0.4-0.5-0.8-0.9-1.2-1.3c3.2,0,6.4-0.6,9.4-1.6l0.3-0.1v-0.3
	c0-0.5,0.5-11.2-0.4-16.3l-1,0.2c0.8,4.5,0.5,13.9,0.4,15.8c-2.2,0.7-4.5,1.1-6.8,1.3c0.5-4.5,0.5-22.3-0.3-28.8
	c1.4,0.4,2.9,0.7,4.3,0.9C374,41,376.8,41.5,378.4,42.9z M348.4,38.1c1.5-0.9,2.3-2.5,2.2-4.2l-0.1-0.5l-0.4-0.2
	c-1.1-0.6-2-1.3-2.9-2.2l-1.3-1.4l-0.5,1.8c-0.1,0.3-0.1,0.7-0.1,1s0,0.6-0.1,0.9c-0.3,1-0.9,1.4-1,1.4l0,0
	c-0.1-0.1-0.4-0.7-0.2-1.8c0.1-0.3,0.2-0.6,0.4-0.8c0.1-0.2,0.2-0.5,0.3-0.8c0.3-1.1,0-2.2-0.6-3.1c-0.6-1.2-0.9-2.5-0.9-3.8
	c-0.2-2.3,0.2-4,0.7-4.4c0.1-0.1,0.3-0.1,0.4-0.1l1.7,0.4l-0.4-1.4c-0.2-0.7-0.3-1.3-0.4-2c0-4.6,4.7-10,10.8-10s10.8,5.4,10.8,10
	c0,0.8-0.1,1.6-0.4,2.4l-0.7,1.8l1.9-0.5c0.2,0,0.3,0,0.5,0c0.7,0.1,1,1.5,0.7,4.1c0,1.3-0.4,2.6-0.9,3.8c-0.6,0.9-0.8,2-0.6,3.1
	c0.1,0.3,0.2,0.5,0.3,0.8c0.2,0.3,0.3,0.5,0.4,0.8c0.2,0.6,0.2,1.2-0.1,1.8l0,0c-0.2,0-0.7-0.4-1-1.4c-0.1-0.3-0.1-0.6-0.1-0.9
	c0-0.3,0-0.7-0.1-1l-0.5-1.8l-1.3,1.4c-0.8,0.8-1.7,1.5-2.7,2.1l-0.4,0.2l-0.1,0.3c-0.1,1.7,0.8,3.3,2.2,4.2
	c0.7,0.5,1.4,0.8,2.1,1.1c0.5,3.9,0.7,13.2,0.7,20.4c-3.4,1.3-7,1.9-10.6,1.9c-3.6,0.1-7.3-0.6-10.6-1.9c-0.1-6.8,0.1-13.6,0.8-20.4
	C347,39,347.8,38.6,348.4,38.1z M329.6,69.9c-0.6-8.1-0.4-22.9,4.3-27c1.6-1.4,4.4-1.9,7.1-2.3c1.4-0.2,2.9-0.5,4.3-0.9
	c-0.9,6.7-1,23.6-0.3,28.8c-2.3-0.1-4.6-0.5-6.8-1.3c-0.1-1.9-0.4-11.3,0.4-15.9l-1-0.2c-0.9,5.1-0.4,15.8-0.4,16.3v0.3l0.3,0.1
	c2.6,1,5.4,1.5,8.2,1.5h0.2c-0.4,0.4-0.7,0.8-1,1.2c-0.7,1-1.6,1.8-2.6,2.5h-1.2l-2.2-0.1l-1-0.1l-3.1-0.2l0,0
	c-1.4-0.1-2.7-0.2-4.1-0.3C330,72.1,329.7,71.7,329.6,69.9z M327.6,74L327.6,74l2.8,0.2c0.3,0,0.6,0.1,0.8,0.1h0.4
	c1.5,0.1,3,0.2,4.5,0.3c0.1,2.2,0.7,4.2,1.9,6.1c-2,0.7-4.1,1.1-6.2,1.1c-5.5,0-9.9-2.2-10.2-5.2c-0.3-1.1,0.2-2.3,1.3-2.9
	C324.5,73.7,326.1,73.7,327.6,74L327.6,74z M314.5,80.1c0.1-1.4,0.7-2.7,1.7-3.8c0,0.1,0,0.2,0,0.3c0,5.9,6.7,10.4,15.6,10.4
	c3.5,0.1,6.9-0.7,10-2.3c4.2,2.8,9.1,4.3,14.2,4.2c5.1,0.1,10.1-1.3,14.3-4.2c3.1,1.6,6.5,2.4,10,2.3c8.9,0,15.6-4.5,15.6-10.4
	c0-0.1,0-0.2,0-0.3c1,1,1.6,2.3,1.7,3.7c0.7,5.9-2.5,9.1-5.6,10h-71.8C317.1,89.2,313.8,86.1,314.5,80.1z"></path>
	<path class="cover-icons" d="M400.4,94.1l-0.3-0.2h-0.3c-1.4,0-2.7,0.3-4,0.9c-2.5-1.2-5.4-1.2-8,0c-2.5-1.2-5.4-1.2-8,0c-2.5-1.2-5.4-1.2-8,0
	c-2.5-1.2-5.4-1.2-7.9,0c-2.5-1.2-5.4-1.2-7.9,0c-2.5-1.2-5.4-1.2-7.9,0c-2.5-1.2-5.4-1.2-7.9,0c-2.5-1.2-5.4-1.2-8,0
	c-2.5-1.2-5.4-1.2-8,0c-2.5-1.2-5.4-1.2-8,0c-1.2-0.6-2.6-0.9-4-0.9H312l-0.3,0.2c-0.1,0.1-3.4,2.8-0.4,10.1v5.7h89.4v-5.7
	C403.8,96.9,400.6,94.2,400.4,94.1z M313.4,107.9v-3.4h85.4v3.4H313.4z M398.9,103.5h-85.6c-2-4.8-0.9-7-0.4-7.7
	c1.1,0.1,2.1,0.4,3.1,0.9l0.5,0.3l0.5-0.3c2.2-1.2,4.8-1.2,7,0l0.5,0.3l0.5-0.3c2.2-1.2,4.8-1.2,7,0l0.5,0.3l0.5-0.3
	c2.2-1.2,4.8-1.2,7,0l0.5,0.3l0.5-0.3c2.2-1.2,4.8-1.2,6.9,0l0.5,0.3l0.5-0.3c2.1-1.2,4.8-1.2,6.9,0l0.5,0.3l0.5-0.3
	c2.2-1.2,4.8-1.2,6.9,0l0.5,0.3l0.5-0.3c2.2-1.2,4.8-1.2,6.9,0l0.5,0.3l0.5-0.3c2.2-1.2,4.8-1.2,7,0l0.5,0.3l0.5-0.3
	c2.2-1.2,4.8-1.2,7,0l0.5,0.3l0.5-0.3c2.2-1.2,4.8-1.2,7,0l0.5,0.3l0.5-0.3c0.9-0.5,2-0.8,3.1-0.9
	C399.9,96.6,400.9,98.8,398.9,103.5L398.9,103.5z"></path>
</svg>