<?xml version="1.0" encoding="utf-8"?>
<svg version="1.1" class="ruby_taiwan_logo" xmlns="http://www.w3.org/2000/svg" xmlns:xlink="http://www.w3.org/1999/xlink" x="0px"
	 y="0px" viewBox="0 0 230 227" style="enable-background:new 0 0 230 227;" xml:space="preserve">
<style type="text/css">
	.st0{fill:#C01C20;}
	.st1{fill:#E1433E;}
	.st2{opacity:0.3;fill:#FBF6C4;enable-background:new    ;}
	.st3{fill:#A21F24;}
	.st4{fill:#E66562;}
	.st5{opacity:0.15;fill:#FBF6C4;enable-background:new    ;}
	.st6{fill:#BD1E21;}
	.st7{fill:#F2B1B0;}
	.st8{fill:#D1221D;}
</style>
<title>Ruby Taiwan Logo</title>
<g id="ruby_taiwan_logo">
	<polygon class="st0" points="229.6,226.1 50.9,215 32.2,213.9 11.7,197.9 6.7,194 4.1,160.3 0.5,111.8 0.4,110.8 0,105.4 
		4.3,101.5 113.6,0.1 120,0.6 121,0.7 196.5,7 224.8,34.4 	"/>
	<polygon class="st1" points="117,16.9 221.1,34.4 190.9,98.6 	"/>
	<polygon class="st2" points="140.1,28.7 194.7,69 211.4,39.4 	"/>
	<polygon class="st3" points="187.1,105.4 77.7,64.5 115.6,20.1 	"/>
	<polygon class="st3" points="32.2,209.6 6.7,194 0.4,110.8 3.2,111.5 	"/>
	<polygon class="st1" points="107,182.7 32.2,209.6 35,106.2 	"/>
	<polygon class="st4" points="187.1,105.4 107,182.7 77.7,64.5 	"/>
	<path class="st5" d="M148.2,90.9c-31.1,11.2-45,38.8-50,56.2L77.8,64.5L148.2,90.9z"/>
	<polygon class="st3" points="229.6,226.1 189,223.6 53,215.2 37.1,214.2 32.2,213.9 37.1,212 105.8,186.4 	"/>
	<polygon class="st6" points="192.7,106.2 229.6,226.1 107,185.8 	"/>
	<polygon class="st3" points="229.6,226.1 194.4,102.5 224.8,34.4 	"/>
	<polygon class="st2" points="107,182.7 67.7,138.7 77.7,64.5 	"/>
	<path class="st5" d="M187.1,105.5L77.7,64.5l15.5-15.7c11.4,9.2,35.4,23.8,66.1,23.2L187.1,105.5z"/>
	<path class="st2" d="M67.8,141c-23.1,0.2-32.1,45.9-35.6,68.7L35,106.2L67.8,141z"/>
	<path class="st2" d="M19.1,163.5L3.3,111.6l18.8-5.8C22.1,105.8,27.5,144.9,19.1,163.5"/>
	<path class="st7" d="M112.5,183.7l76.4-74l40.6,116.4l-35.2-123.6l30.5-68.1L196.5,7l-3.8-0.3l28.3,27.7l-30.2,64.2L117,16.9
		c3.5-6.9,4.5-12.2,3-16.2l-6.4-0.6L0,105.5l0.4,5.3c0.9,0.3,1.8,0.6,2.7,0.7c16.7,74.6,29,98.1,29,98.1
		c-5.8-24.2-16.4-56.5-23.2-79.3c-2.7-8.9-4.7-15.7-5.7-18.8c0.6,0.1,1.3,0.1,1.9,0.1c6.6,0,16.4-4.4,27.2-11.1l-0.3,109.1L35,106.2
		l72,76.5l-73.8-82.6C46,92,60.3,80.6,72.6,69.4c15.4-14.1,28.7-28.7,37.4-41.1c2.2-3.1,4.1-6.1,5.6-8.7l0,0l71.5,86l-80,77.2
		l-74.9,26.8L6.7,194.1l25.5,19.8l73.6-27.5l123.8,39.7L112.5,183.7z"/>
	<path class="st8" d="M71.1,67.6C38.9,97.1,7.6,115.3,1.2,108.3s14.4-36.6,46.6-66.1s63.5-47.7,69.9-40.6S103.3,38.2,71.1,67.6z"/>
	<path class="st3" d="M71.1,67.6C38.9,97.1,7.6,115.3,1.2,108.3c-0.2-0.2-0.3-0.4-0.4-0.6c12.3-2.6,36-18.2,60.3-40.4
		c31.2-28.6,51.4-57.2,45.1-64c-0.5-0.5-1-0.9-1.7-1.1c6.4-2.5,11.1-2.9,13.2-0.6C124.1,8.5,103.3,38.1,71.1,67.6z"/>
	<path class="st5" d="M6.7,194.1c7.7-25.9-0.4-67.9-3.5-82.5l29,98.1L6.7,194.1z"/>
	<polygon class="st5" points="229.6,226.1 198.3,93.6 212.7,61.5 228.8,193.6 	"/>
	<polygon class="st2" points="216.5,216.2 151.3,186.9 183.9,178.1 	"/>
	<path class="st5" d="M229.6,226.1l-41.6-2.6c-22.5-4.7-48.6-10.6-69.1-17.6c-27.7-9.5-51.8-0.1-66.8,9.2l-19.9-1.2l73.6-27.5
		L229.6,226.1z"/>
</g>
</svg>
