<?xml version="1.0" encoding="utf-8"?>
<svg version="1.1" id="default_cover" xmlns="http://www.w3.org/2000/svg" xmlns:xlink="http://www.w3.org/1999/xlink" x="0px" y="0px" viewBox="0 0 149.4 150" style="enable-background:new 0 0 149.4 150;" xml:space="preserve">
	<style>
		.default_cover{fill:#E0E0E0}
	</style>
	<title>Default Cover</title>
	<g class="default_cover">
		<path d="M114.7,31.9H49.1c-0.5-8.4-7.4-15.1-15.9-15.1c-8.9-0.1-16.3,7.1-16.4,16c-0.1,5.8,2.9,10.9,7.4,13.8L2.2,71.8L75.8,150
	l73.6-78.2L114.7,31.9z M143.1,70h-34.8L95.5,54.6l18.3-18.3L143.1,70z M103.6,70H80.1l12.8-12.9L103.6,70z M109.5,35.4L93.2,51.8
	L79.6,35.4C79.6,35.4,109.5,35.4,109.5,35.4z M90.6,54.3L76.1,69L61.1,54.2l14.7-17.7L90.6,54.3z M72.1,70H48l10.8-13.1L72.1,70z
		M58.5,51.7L42.1,35.4h29.9L58.5,51.7z M37.9,36.3l18.4,18.2L43.4,70H8.5L37.9,36.3z M8.7,73.5H43l27.4,65.5L8.7,73.5z M75.7,142.7
	L46.9,73.5h57.8L75.7,142.7z M81.3,139.1l27.3-65.5h34.3L81.3,139.1z"></path>
		<path d="M45.9,16c1.6,1.3,3.1,2.8,4.3,4.4c0.1,0.1,0.3,0.1,0.4,0l6.7-10.9c0.1-0.1,0.1-0.3-0.1-0.4c-0.1-0.1-0.2-0.1-0.3,0l-11,6.4
	C45.8,15.6,45.7,15.8,45.9,16L45.9,16z"></path>
		<path d="M35.6,11.8c2.1,0.2,4.1,0.8,5.9,1.6c0.1,0.1,0.1,0.1,0.2,0.1c0.1,0,0.3-0.1,0.3-0.3l0.3-12.8c0-0.1-0.1-0.2-0.1-0.3
	c-0.1-0.1-0.3-0.1-0.5,0.1l-6.3,11.1c0,0.1,0,0.1,0,0.1C35.4,11.7,35.5,11.8,35.6,11.8z"></path>
		<path d="M50.6,20.3C50.6,20.4,50.6,20.3,50.6,20.3L50.6,20.3z"></path>
		<path d="M24.6,13.3c0.1,0,0.1,0,0.1,0c1.9-0.8,3.9-1.3,5.9-1.5c0.1,0,0.3-0.1,0.3-0.3c0-0.1,0-0.1-0.1-0.1L24.8,0.1
	c-0.1-0.1-0.3-0.2-0.4-0.1c-0.1,0.1-0.1,0.1-0.1,0.3l0.1,12.8C24.3,13.2,24.5,13.3,24.6,13.3z"></path>
		<path d="M52.6,24.8c0.8,1.9,1.3,3.9,1.5,5.9c0,0.1,0.1,0.3,0.3,0.3c0.1,0,0.1,0,0.1,0l11.2-6.1c0.1-0.1,0.2-0.3,0.1-0.4
	c-0.1-0.1-0.1-0.1-0.3-0.1l-12.8,0.1C52.7,24.5,52.6,24.6,52.6,24.8z"></path>
		<path d="M52.6,24.8C52.6,24.7,52.5,24.6,52.6,24.8L52.6,24.8z"></path>
		<path d="M13.3,41.3c0-0.1,0-0.1,0-0.1c-0.8-1.9-1.3-3.9-1.5-5.9c0-0.1-0.1-0.3-0.3-0.3c-0.1,0-0.1,0-0.2,0.1L0.1,41.1
	C0,41.1,0,41.3,0,41.5c0.1,0.1,0.1,0.1,0.3,0.1L13,41.5C13.2,41.5,13.3,41.4,13.3,41.3z"></path>
		<path d="M11.4,30.4c0.1,0.1,0.3,0,0.4-0.1c0,0,0-0.1,0-0.1c0.3-2.1,0.8-4,1.6-5.9c0.1-0.1,0-0.3-0.1-0.4c0,0.1,0,0.1-0.1,0.1
	L0.5,23.6c-0.1,0-0.3,0.1-0.3,0.3c0,0.1,0.1,0.2,0.1,0.3L11.4,30.4z"></path>
		<path d="M15.3,45.5C15.3,45.5,15.3,45.5,15.3,45.5L15.3,45.5z"></path>
		<path d="M20.4,15.3C20.5,15.3,20.4,15.3,20.4,15.3L20.4,15.3z"></path>
		<path d="M15.6,20c0.1,0.1,0.3,0.2,0.4,0.1L16,20c1.3-1.6,2.8-3.1,4.4-4.3c0.1-0.1,0.1-0.3,0-0.4L9.5,8.6C9.4,8.6,9.2,8.6,9.2,8.8
	C9.1,8.8,9.1,8.9,9.2,9L15.6,20z"></path>
		<path d="M8.8,56.7c0.1,0.1,0.2,0.1,0.3,0l11-6.4c0.1-0.1,0.2-0.3,0.1-0.4L20,49.8c-1.6-1.3-3.1-2.8-4.3-4.4c-0.1-0.1-0.3-0.1-0.4,0
	L8.7,56.3C8.6,56.5,8.6,56.7,8.8,56.7z"></path>
	</g>
</svg>