<?xml version="1.0" encoding="utf-8"?>
<svg version="1.1" xmlns="http://www.w3.org/2000/svg" xmlns:xlink="http://www.w3.org/1999/xlink" x="0px" y="0px" viewBox="0 0 395 316" style="enable-background:new 0 0 395 316;" xml:space="preserve">
	<style type="text/css">
	  .geometric-background{opacity:0.5;fill:#B71C1C;}
  </style>
  <path class="geometric-background" d="M135.1,240.4l10.3,18.6l16.7-9.2c0.8-0.4,1.8-0.1,2.2,0.6c0.4,0.8,0.1,1.8-0.6,2.2l-16.7,9.2l10.3,18.7
c0.4,0.8,0.1,1.8-0.6,2.2c-0.8,0.4-1.8,0.1-2.2-0.6l-10.3-18.6l-16.7,9.2c-0.8,0.4-1.8,0.2-2.2-0.6c-0.4-0.8-0.1-1.8,0.6-2.2
l16.7-9.2L132.2,242c-0.4-0.8-0.1-1.8,0.6-2.2C133.7,239.4,134.6,239.6,135.1,240.4z"></path>
  <path class="geometric-background" d="M67,236.5c0-3.5-2.8-6.2-6.2-6.2c-3.5,0-6.2,2.8-6.2,6.2c0,3.5,2.8,6.2,6.2,6.2C64.2,242.7,67,239.9,67,236.5z
"></path>
  <polygon class="geometric-background" points="281.4,129.9 296.6,114.8 301.7,136.7 "></polygon>
  <polygon class="geometric-background" points="222.2,183.1 203.8,183.1 203.8,201.6 222.2,201.6 "></polygon>
  <path class="geometric-background" d="M365.2,74c-0.8,0.1-1.6,0.3-2.5,0.5c-2.1,0.4-4.2,0.9-6.3,0.9c-3.5,0-6-1.3-7.5-4c-1.9-3.4-2.1-7.3-2.3-11
c-0.1-2.9-0.3-6-1.3-8.7c-1.1-2.8-3.1-4.1-6.5-4.1l0,0c-3,0-6.4,1-9.4,1.9c-1.5,0.4-2.9,0.9-4,1.1c-1,0.2-2,0.3-2.9,0.3
c-3,0-5.7-1.1-7.9-3.2c-3.5-3.3-3.7-8.7-2.8-12.4c0.2-0.8,0.8-1.3,1.7-1.3l0,0c0.6,0,1.1,0.3,1.5,0.7c0.3,0.4,0.4,1,0.3,1.5
c-1,4,0,9.1,4.7,10.8c0.8,0.3,1.6,0.4,2.5,0.4c2.2,0,4.7-0.8,6.8-1.5c0.6-0.2,1.2-0.4,1.7-0.6c2.6-0.8,5.1-1.2,7.3-1.2
c4.5,0,7.9,1.8,9.8,5.1s2.1,7.1,2.2,10.9c0.1,2,0.2,3.9,0.5,5.8c0.6,3.4,1.7,5.8,4.5,6c0.3,0,0.7,0,1,0c1.8,0,3.7-0.4,5.5-0.8
c0.9-0.2,1.7-0.4,2.6-0.5c1.3-0.2,2.1,0.8,2.2,1.7C366.7,73.2,366.1,73.9,365.2,74z"></path>
  <path class="geometric-background" d="M356.3,209.9c0,0.8,0,1.6,0.1,2.5c0.1,2.1,0.2,4.3-0.1,6.4c-0.5,3.5-2.2,5.7-5.1,6.8c-3.6,1.4-7.5,1-11.3,0.6
c-2.9-0.3-6-0.6-8.8,0c-3,0.6-4.6,2.5-5.1,5.8l0,0c-0.5,2.9,0,6.5,0.5,9.6c0.2,1.5,0.4,3,0.5,4.2c0.1,1,0,2-0.1,2.9
c-0.5,3-1.9,5.5-4.3,7.4c-3.8,3-9.2,2.3-12.7,0.8c-0.8-0.3-1.2-1-1-1.8l0,0c0.1-0.6,0.4-1.1,0.9-1.4c0.5-0.3,1-0.3,1.5-0.1
c3.8,1.6,9,1.4,11.4-3c0.4-0.7,0.6-1.5,0.8-2.4c0.3-2.2-0.1-4.7-0.5-7c-0.1-0.6-0.2-1.2-0.3-1.8c-0.4-2.7-0.4-5.2-0.1-7.4
c0.7-4.5,2.9-7.6,6.5-8.9c3.5-1.3,7.4-0.9,11.1-0.6c2,0.2,3.9,0.4,5.8,0.3c3.5-0.1,5.9-0.8,6.6-3.5c0.1-0.3,0.1-0.6,0.2-1
c0.3-1.8,0.2-3.7,0.1-5.5c0-0.9-0.1-1.8-0.1-2.6c0-1.3,1.1-2,2.1-1.9C355.7,208.3,356.3,209,356.3,209.9z"></path>
  <path class="geometric-background" d="M199,53.2L189,72l16.8,8.9c0.8,0.4,1.1,1.4,0.7,2.2c-0.4,0.8-1.4,1.1-2.2,0.7l-16.8-8.9l-10,18.8
c-0.4,0.8-1.4,1.1-2.2,0.7s-1.1-1.4-0.7-2.2l10-18.8l-16.8-8.9c-0.8-0.4-1.1-1.4-0.7-2.2c0.4-0.8,1.4-1.1,2.2-0.7l16.8,8.9l10-18.8
c0.4-0.8,1.4-1.1,2.2-0.7C199.2,51.4,199.5,52.4,199,53.2z"></path>
  <path class="geometric-background" d="M47.5,41.8c0-4.3-3.5-7.8-7.8-7.8s-7.8,3.5-7.8,7.8s3.5,7.8,7.8,7.8C44.1,49.5,47.5,46.1,47.5,41.8z"></path>
  <path class="geometric-background" d="M124.6,151.7c-0.8,0.1-1.6,0.3-2.5,0.5c-2.1,0.4-4.2,0.9-6.3,0.9c-3.5,0-6-1.3-7.5-4c-1.9-3.4-2.1-7.3-2.3-11
c-0.1-2.9-0.3-6-1.3-8.7c-1.1-2.8-3.1-4.1-6.5-4.1l0,0c-3,0-6.4,1-9.4,1.9c-1.5,0.4-2.9,0.9-4,1.1c-1,0.2-2,0.3-2.9,0.3
c-3,0-5.7-1.1-7.9-3.2c-3.5-3.3-3.7-8.7-2.8-12.4c0.2-0.8,0.8-1.3,1.7-1.3l0,0c0.6,0,1.1,0.3,1.5,0.7c0.3,0.4,0.4,1,0.3,1.5
c-1,4,0,9.1,4.7,10.8c0.8,0.3,1.6,0.4,2.5,0.4c2.2,0,4.7-0.8,6.8-1.5c0.6-0.2,1.2-0.4,1.7-0.6c2.6-0.8,5.1-1.2,7.3-1.2
c4.5,0,7.9,1.8,9.8,5.1c1.9,3.3,2.1,7.1,2.2,10.9c0.1,2,0.2,3.9,0.5,5.8c0.6,3.4,1.7,5.8,4.5,6c0.3,0,0.7,0,1,0
c1.8,0,3.7-0.4,5.5-0.8c0.9-0.2,1.7-0.4,2.6-0.5c1.3-0.2,2.1,0.8,2.2,1.7C126.1,150.9,125.5,151.6,124.6,151.7z"></path>
</svg>